<?xml version="1.0" encoding="UTF-8"?>
<svg version="1.1" xmlns="http://www.w3.org/2000/svg" width="1028" height="132" viewBox="0 0 1028 132">
<path d="M0 0 C1.16015625 0.10054687 1.16015625 0.10054687 2.34375 0.203125 C4.92471909 0.85771861 5.86106047 1.6802818 7.5 3.75 C9.06023404 7.52740872 9.90521923 10.67248148 9.5 14.75 C7.40776591 17.72084599 4.82912018 19.35710402 1.5 20.75 C-4.27445331 21.14402152 -9.61766943 21.00488704 -14.5 17.75 C-15.47605154 13.49720401 -16.02918172 11.0435553 -14.375 7 C-10.2490793 2.04889516 -6.53447869 -0.65344787 0 0 Z M-5.5 9.75 C-5.5 11.07 -5.5 12.39 -5.5 13.75 C-3.19 13.75 -0.88 13.75 1.5 13.75 C1.5 12.43 1.5 11.11 1.5 9.75 C-0.81 9.75 -3.12 9.75 -5.5 9.75 Z M-13.5 12.75 C-13.17 14.07 -12.84 15.39 -12.5 16.75 C-11.84 16.42 -11.18 16.09 -10.5 15.75 C-11.49 14.76 -12.48 13.77 -13.5 12.75 Z " fill="#98637d" transform="translate(808.5,19.25)"/>
<path d="M0 0 C1.921875 1.33203125 1.921875 1.33203125 2.53125 3.2578125 C2.6898896 5.95027896 2.83662454 8.63598531 2.921875 11.33203125 C2.9734375 12.34136719 3.025 13.35070312 3.078125 14.390625 C3.41880718 25.98801435 1.32020511 37.0307874 -4.078125 47.33203125 C-4.62984375 48.40839844 -5.1815625 49.48476562 -5.75 50.59375 C-10.44411173 59.55067687 -10.44411173 59.55067687 -13.296875 63.06640625 C-15.3356504 65.17925261 -15.3356504 65.17925261 -15.078125 67.83203125 C-13.77120728 71.09932555 -12.7212184 72.95324719 -10.078125 75.33203125 C-7.72069046 75.79345082 -5.50236608 75.95621329 -3.1015625 75.99609375 C-2.43382812 76.10695313 -1.76609375 76.2178125 -1.078125 76.33203125 C-0.088125 77.81703125 -0.088125 77.81703125 0.921875 79.33203125 C-3.64960082 81.93829792 -7.92625339 82.2486219 -13.078125 81.33203125 C-16.65469742 79.35076451 -19.52552066 77.11299609 -20.76171875 73.12890625 C-20.91833984 72.23945313 -20.91833984 72.23945313 -21.078125 71.33203125 C-21.79097656 71.69296875 -22.50382812 72.05390625 -23.23828125 72.42578125 C-33.07138274 77.19013729 -33.07138274 77.19013729 -39.078125 76.33203125 C-39.72007812 75.95175781 -40.36203125 75.57148437 -41.0234375 75.1796875 C-43.05606466 74.06624846 -43.05606466 74.06624846 -45.04296875 75.08203125 C-45.69394531 75.49453125 -46.34492188 75.90703125 -47.015625 76.33203125 C-50.75512795 78.38945295 -50.75512795 78.38945295 -53.890625 77.83203125 C-56.30207049 76.17846863 -57.54825906 74.81861451 -59.078125 72.33203125 C-59.63768024 65.1794556 -57.34452977 57.86762269 -53.515625 51.89453125 C-49.63160147 49.40477258 -45.63276175 49.14748357 -41.078125 49.33203125 C-37.73544582 50.58553594 -36.55898039 51.40139615 -34.9296875 54.5546875 C-33.92142192 57.84311332 -34.07867167 60.23700595 -34.453125 63.64453125 C-34.61941406 65.24748047 -34.61941406 65.24748047 -34.7890625 66.8828125 C-34.93214844 68.09517578 -34.93214844 68.09517578 -35.078125 69.33203125 C-29.20057228 68.8512462 -29.20057228 68.8512462 -24.078125 66.33203125 C-23.51461685 63.10312328 -23.51461685 63.10312328 -23.578125 59.26953125 C-22.93502207 39.35590533 -16.03662522 16.41415224 -4.078125 0.33203125 C-2.078125 -0.66796875 -2.078125 -0.66796875 0 0 Z M-4.078125 11.33203125 C-12.33884717 26.0079951 -16.73951886 41.59945455 -18.078125 58.33203125 C-17.088125 58.33203125 -16.098125 58.33203125 -15.078125 58.33203125 C-4.90530241 47.82567349 -2.25747862 30.57390794 -1.828125 16.58203125 C-1.73013239 13.24616294 -1.73013239 13.24616294 -4.078125 11.33203125 Z M-49.265625 55.95703125 C-52.97108219 60.81245791 -53.31738071 65.35063843 -53.078125 71.33203125 C-51.758125 71.66203125 -50.438125 71.99203125 -49.078125 72.33203125 C-49.078125 71.01203125 -49.078125 69.69203125 -49.078125 68.33203125 C-47.428125 68.33203125 -45.778125 68.33203125 -44.078125 68.33203125 C-43.35086448 66.75730185 -42.64692078 65.17178846 -41.953125 63.58203125 C-41.55867188 62.7003125 -41.16421875 61.81859375 -40.7578125 60.91015625 C-39.81478025 58.3462613 -39.81478025 58.3462613 -40.9609375 56.00390625 C-41.32960938 55.4521875 -41.69828125 54.90046875 -42.078125 54.33203125 C-45.26713136 53.97769721 -46.64678057 54.01160396 -49.265625 55.95703125 Z " fill="#98637d" transform="translate(335.078125,19.66796875)"/>
<path d="M0 0 C2.375 1.5 2.375 1.5 4 3 C3.8125 4.8125 3.8125 4.8125 3 7 C-0.47889314 9.68371757 -3.6485788 10.60441625 -8 11 C-9 10 -9 10 -9.25 6.625 C-9 3 -9 3 -7.875 1.0625 C-5.09808875 -0.51108304 -3.13770673 -0.38420899 0 0 Z M-6 3 C-6.66 4.32 -7.32 5.64 -8 7 C-5.525 7.495 -5.525 7.495 -3 8 C-2.34 6.68 -1.68 5.36 -1 4 C-2.65 3.67 -4.3 3.34 -6 3 Z " fill="#98637d" transform="translate(833,29)"/>
<path d="M0 0 C0 2.64 0 5.28 0 8 C-4 8 -4 8 -5.9375 7.25 C-8.18414239 6.77166344 -8.18414239 6.77166344 -10.5625 8.4375 C-17.64008504 15.87803812 -17.2814899 27.63342859 -18.37304688 37.29101562 C-19.60106454 47.20250547 -21.22774544 55.30722524 -29 62 C-29.99 61.67 -30.98 61.34 -32 61 C-33.13500977 58.16430664 -33.13500977 58.16430664 -34.19140625 54.41015625 C-34.38218246 53.7504332 -34.57295868 53.09071014 -34.76951599 52.41099548 C-35.37899372 50.29800093 -35.97177444 48.18080682 -36.5625 46.0625 C-37.15879801 43.94843985 -37.75865951 41.83557508 -38.36619568 39.72471619 C-38.91712283 37.80717635 -39.45603492 35.88619674 -39.99438477 33.96508789 C-40.78241797 30.9225608 -40.78241797 30.9225608 -43 29 C-43.18433594 29.55945313 -43.36867187 30.11890625 -43.55859375 30.6953125 C-48.10061189 43.2514693 -55.69583791 56.0456651 -67.765625 62.47265625 C-72.23811104 64.37285182 -75.08974291 65.14448525 -79.9375 64.375 C-84.18075696 61.08431093 -85.87888899 57.21811229 -87 52 C-86.59375 49.68359375 -86.59375 49.68359375 -86 48 C-84.68 48 -83.36 48 -82 48 C-81.80664062 48.62648437 -81.61328125 49.25296875 -81.4140625 49.8984375 C-81.15367188 50.71570313 -80.89328125 51.53296875 -80.625 52.375 C-80.24214844 53.59316406 -80.24214844 53.59316406 -79.8515625 54.8359375 C-79.10145717 57.16459185 -79.10145717 57.16459185 -77 59 C-71.87769086 59.61727615 -67.60409987 58.16517317 -63.4375 55.25 C-54.47960743 47.58967302 -47.35462748 34.37213197 -45.6640625 22.67578125 C-45.62223195 20.41274826 -45.77963861 18.2533729 -46 16 C-46.07992187 14.79085937 -46.15984375 13.58171875 -46.2421875 12.3359375 C-46.4701932 8.88821498 -46.72563246 5.44429256 -47 2 C-45.35 1.67 -43.7 1.34 -42 1 C-40.48124402 3.80254212 -39.57502757 6.3492798 -38.921875 9.46484375 C-38.73326904 10.33786133 -38.54466309 11.21087891 -38.3503418 12.11035156 C-38.152229 13.04331055 -37.95411621 13.97626953 -37.75 14.9375 C-35.79329675 23.89142206 -33.48629171 32.68641889 -30.87988281 41.47241211 C-30.63463867 42.30135986 -30.38939453 43.13030762 -30.13671875 43.984375 C-29.80740356 45.07830566 -29.80740356 45.07830566 -29.47143555 46.19433594 C-29 48 -29 48 -29 50 C-28.34 50 -27.68 50 -27 50 C-25.53982597 42.77162078 -24.15956142 35.57333816 -23.2734375 28.25 C-23.15395752 27.27627441 -23.03447754 26.30254883 -22.91137695 25.29931641 C-22.68255577 23.38131775 -22.46707631 21.4616702 -22.26635742 19.54052734 C-21.43053702 12.58393954 -19.88575891 8.58978364 -14.5625 3.8125 C-13.2940625 2.9153125 -13.2940625 2.9153125 -12 2 C-11.21625 1.401875 -10.4325 0.80375 -9.625 0.1875 C-6.10407818 -1.40529797 -3.70937515 -0.80006131 0 0 Z " fill="#98637d" transform="translate(100,34)"/>
<path d="M0 0 C2.27034752 1.92635547 3.26552443 2.88088796 4.0625 5.75 C3.8698044 11.04912888 2.81501395 13.99748605 -0.9375 17.75 C-4.67591181 20.84754121 -8.05470468 21.34134049 -12.78125 21.16015625 C-16.45359906 20.46161159 -17.88243949 18.76837013 -19.9375 15.75 C-21.13051269 12.23724042 -21.49692598 10.05296683 -20.01171875 6.59375 C-15.41900706 -1.25509474 -8.61035035 -3.66397887 0 0 Z M-15.9375 6.75 C-16.9275 8.235 -16.9275 8.235 -17.9375 9.75 C-14.76429218 13.28586014 -12.77006305 15.33578031 -7.9375 15.75 C-8.2675 13.77 -8.5975 11.79 -8.9375 9.75 C-6.6275 10.08 -4.3175 10.41 -1.9375 10.75 C-2.2675 9.1 -2.5975 7.45 -2.9375 5.75 C-7.37957529 5.6416567 -11.58133279 5.82850309 -15.9375 6.75 Z M-6.9375 11.75 C-6.2775 12.41 -5.6175 13.07 -4.9375 13.75 C-4.9375 13.09 -4.9375 12.43 -4.9375 11.75 C-5.5975 11.75 -6.2575 11.75 -6.9375 11.75 Z " fill="#98637d" transform="translate(706.9375,38.25)"/>
<path d="M0 0 C2 0.0625 2 0.0625 4 1 C5.63368822 4.37567504 6.3202231 7.42633056 6.67578125 11.140625 C6.77898682 12.1212793 6.88219238 13.10193359 6.98852539 14.11230469 C7.09543701 15.14774414 7.20234863 16.18318359 7.3125 17.25 C8.57092207 28.36451839 10.079287 41.20347889 16 51 C16.99 51.495 16.99 51.495 18 52 C18.10957031 51.19820312 18.21914063 50.39640625 18.33203125 49.5703125 C18.87025525 45.7108526 19.42996993 41.85486087 20 38 C20.16072998 36.90099365 20.16072998 36.90099365 20.32470703 35.77978516 C24.42100836 8.17894257 24.42100836 8.17894257 31 3 C34.25 3.25 34.25 3.25 37 4 C37.495 5.98 37.495 5.98 38 8 C37.071875 8.53625 36.14375 9.0725 35.1875 9.625 C29.16092622 14.1153883 28.62145211 19.51678193 27.48632812 26.54541016 C26.47535595 33.7267637 25.90658265 40.96645233 25.3203125 48.19335938 C25.206875 49.38638672 25.0934375 50.57941406 24.9765625 51.80859375 C24.88455566 52.87907959 24.79254883 53.94956543 24.69775391 55.05249023 C23.87130559 58.54364159 22.40268444 60.38161246 20 63 C16.09988488 62.4428407 14.4932734 61.0121314 12 58 C10.38781763 54.83233395 9.09880819 51.56109725 7.8125 48.25 C7.45736328 47.38117188 7.10222656 46.51234375 6.73632812 45.6171875 C4.65419846 40.35457514 3.43977548 35.6448793 3 30 C-0.69327039 33.53555065 -3.83034076 37.26471003 -6.875 41.375 C-12.16477606 48.36674676 -17.38757187 54.43254312 -25 59 C-25.66 59.4125 -26.32 59.825 -27 60.25 C-29.88485391 61.33182022 -31.95239504 61.45389861 -35 61 C-37.94482279 57.95701645 -38.16827468 55.2504502 -38.1875 51.1875 C-38.13966204 49.79108728 -38.08204828 48.39482079 -38 47 C-36.35 47 -34.7 47 -33 47 C-32.67 49.64 -32.34 52.28 -32 55 C-26.12601982 54.30894351 -22.35755999 51.35755999 -18.25 47.25 C-17.5075 46.5075 -16.765 45.765 -16 45 C-15.34 45 -14.68 45 -14 45 C-13.7628125 44.46117187 -13.525625 43.92234375 -13.28125 43.3671875 C-11.05560802 39.25517822 -7.98055206 35.73505148 -5.09375 32.0703125 C-2.24282809 27.88966954 -0.70288045 23.95736084 -0.8125 18.875 C-0.82667969 18.11832031 -0.84085937 17.36164062 -0.85546875 16.58203125 C-1.08162162 12.54184071 -1.51455214 8.52339641 -1.9765625 4.50390625 C-1.98816406 3.26447266 -1.98816406 3.26447266 -2 2 C-1.34 1.34 -0.68 0.68 0 0 Z " fill="#98637d" transform="translate(403,38)"/>
<path d="M0 0 C0.99 0.33 1.98 0.66 3 1 C0.525 8.425 0.525 8.425 -2 16 C-0.35 15.505 1.3 15.01 3 14.5 C7.87890489 13.1556187 11.96532046 12.71501814 17 13 C13.70020715 17.06974451 10.31478198 17.94931299 5.375 18.9375 C-4.2061902 21.10343753 -11.74634841 24.63176295 -19.40625 30.86328125 C-21 32 -21 32 -23 32 C-23.13728516 32.87398437 -23.13728516 32.87398437 -23.27734375 33.765625 C-24.17201069 36.53183847 -25.46164769 37.76373964 -27.5625 39.75 C-28.20316406 40.36359375 -28.84382812 40.9771875 -29.50390625 41.609375 C-29.99761719 42.06828125 -30.49132812 42.5271875 -31 43 C-30.67 43.33 -30.34 43.66 -30 44 C-15.44461064 41.78087101 -3.14468821 36.1719638 9 28 C15.36381172 25.0947816 20.88245834 26.47085398 27.375 28.0625 C30.6641901 28.8496566 33.44185149 29.00664935 36.8125 28.8125 C43.84996256 28.61363921 49.83703918 31.91851959 56 35 C66.29395971 35.32547829 75.61370396 31.84794178 85.1875 28.5625 C88.15802555 27.55739166 91.13104401 26.55991176 94.10546875 25.56640625 C94.80509735 25.3316861 95.50472595 25.09696594 96.22555542 24.85513306 C101.11358672 23.23598962 105.94375844 21.95627672 111 21 C108.74600142 23.30677981 106.50028745 25.14405598 103.8125 26.9375 C102.73935547 27.66259766 102.73935547 27.66259766 101.64453125 28.40234375 C95.23498237 32.27458229 88.48765737 35.09833197 81.5 37.75 C80.67757812 38.06582031 79.85515625 38.38164063 79.0078125 38.70703125 C77.00658254 39.47494507 75.00348559 40.23799052 73 41 C75.68504071 43.68504071 78.87619339 45.04206665 82.25 46.6875 C83.70196483 47.40205545 85.15378498 48.11690498 86.60546875 48.83203125 C87.33942871 49.19248535 88.07338867 49.55293945 88.82958984 49.92431641 C90.87109014 50.93611059 92.9003154 51.96826565 94.92578125 53.01171875 C95.53969727 53.3260083 96.15361328 53.64029785 96.78613281 53.96411133 C98.4644014 54.82469683 100.14047422 55.68956052 101.81640625 56.5546875 C105.2003479 58.09095549 108.41015033 59.06745393 112 60 C112 59.34 112 58.68 112 58 C110.8553125 57.9071875 110.8553125 57.9071875 109.6875 57.8125 C107 57 107 57 105.125 54.9375 C103.62962079 51.03289874 103.51731017 47.87314894 105 44 C107.91363653 40.20245127 111.16661722 37.83431658 115.9375 37.125 C117.4534375 37.063125 117.4534375 37.063125 119 37 C119.2475 37.804375 119.495 38.60875 119.75 39.4375 C120.1625 40.283125 120.575 41.12875 121 42 C123.01508358 42.73323796 123.01508358 42.73323796 125 43 C126.4783226 45.95664519 126.06032783 48.74229737 126 52 C125.01 52 124.02 52 123 52 C123.33 52.66 123.66 53.32 124 54 C122.35 54.33 120.7 54.66 119 55 C119 55.99 119 56.98 119 58 C118.01 58 117.02 58 116 58 C117.10041919 59.68681738 117.10041919 59.68681738 119 61 C124.19711627 60.87625914 129.57632686 58.70076886 134 56 C134.33 55.01 134.66 54.02 135 53 C137.72265625 51.61328125 137.72265625 51.61328125 141.0625 50.3125 C142.16722656 49.87550781 143.27195312 49.43851563 144.41015625 48.98828125 C145.26480469 48.66214844 146.11945313 48.33601563 147 48 C146.34 47.01 145.68 46.02 145 45 C146.65335187 43.34664813 148.79233409 43.5381161 151.0144043 43.20385742 C158.85276835 41.94527161 163.75736681 40.09115185 169 34 C169.69005127 33.21810303 169.69005127 33.21810303 170.39404297 32.42041016 C172.99057956 29.47799809 175.55080253 26.50862858 178.0703125 23.5 C178.54758789 22.93152344 179.02486328 22.36304687 179.51660156 21.77734375 C180.56173455 20.52511067 181.59948525 19.26669788 182.63183594 18.00390625 C183.16325195 17.36324219 183.69466797 16.72257812 184.2421875 16.0625 C184.96317627 15.18271484 184.96317627 15.18271484 185.69873047 14.28515625 C187 13 187 13 189 13 C187.78421664 18.59260348 185.47986937 22.78011845 182.46875 27.62890625 C180.76899507 30.3729255 179.26258312 33.0292162 178 36 C178.33 36.66 178.66 37.32 179 38 C180.65 38 182.3 38 184 38 C184.33 38.99 184.66 39.98 185 41 C192.76357569 42.9177329 197.60814111 40.45819071 204.625 37.0625 C206.63323363 36.10577135 208.64614606 35.1587894 210.6640625 34.22265625 C211.98591553 33.58469116 211.98591553 33.58469116 213.33447266 32.93383789 C216.36478945 31.87220007 218.81186339 31.83390865 222 32 C220.50468495 35.9875068 218.28445287 37.35837718 214.6875 39.5 C210.88730004 41.78115686 207.41190032 44.16607186 204 47 C204.5181036 48.9648239 204.5181036 48.9648239 206 51 C207.73256262 51.68648707 209.46681433 52.3695361 211.21484375 53.015625 C213.39973606 54.22042339 214.11188388 55.43236689 215.375 57.5625 C216.82780194 59.8591737 217.49834793 60.82717759 220.09765625 61.72265625 C221.66282204 61.9917916 223.23069435 62.24561798 224.80078125 62.484375 C228.30731151 63.30650998 230.38555294 65.61289616 233 68 C234.23395361 68.71590135 235.48460479 69.40376545 236.75 70.0625 C240.1191724 72.07104509 240.59371943 72.5847472 242 76 C242.85249964 77.06015981 243.72987315 78.10057705 244.625 79.125 C247 82 247 82 247 84 C241.17144979 83.53520333 237.10151084 81.0379233 232.1875 78.125 C226.27196644 74.62510206 220.61800446 71.91442052 214 70 C214 69.34 214 68.68 214 68 C209.68318066 65.90930514 205.5894364 65.61270925 200.875 65.4375 C199.34367898 65.3660904 197.81242741 65.29317545 196.28125 65.21875 C195.54261719 65.18394531 194.80398438 65.14914063 194.04296875 65.11328125 C191.47673107 64.97098509 188.92990853 64.71453827 186.375 64.4375 C171.64590752 63.04753998 157.14323478 63.47175476 144 71 C142.82266347 72.98969071 142.82266347 72.98969071 142 75 C140.515 75.99 140.515 75.99 139 77 C140.85337771 78.39688074 142.70774374 79.7924502 144.5625 81.1875 C145.1080957 81.5987915 145.65369141 82.01008301 146.21582031 82.43383789 C149.18649202 84.66624397 152.18388678 86.83863487 155.25 88.9375 C156.1575 89.618125 157.065 90.29875 158 91 C158 91.66 158 92.32 158 93 C150.35081463 92.45046409 144.27677603 89.82165196 137.33398438 86.70703125 C132.04768878 84.45359127 128.76307029 83.60795404 123 85 C121.10616229 85.22575549 119.21030736 85.43548999 117.3125 85.625 C116.40113281 85.72039062 115.48976563 85.81578125 114.55078125 85.9140625 C97.50238322 86.48843426 78.18551745 72.98575406 64.90258789 63.71118164 C47.28047851 51.47781316 28.93596615 46.98068442 7.58203125 50.2578125 C3.09556126 51.18739734 -0.06474935 52.69824962 -4 55 C-7 55.75 -7 55.75 -9 56 C-9 56.66 -9 57.32 -9 58 C-7.824375 58.598125 -6.64875 59.19625 -5.4375 59.8125 C-4.77621094 60.14894531 -4.11492187 60.48539063 -3.43359375 60.83203125 C2.41054367 63.63684199 8.24311652 65.81161626 14.4375 67.6875 C15.16904297 67.91244141 15.90058594 68.13738281 16.65429688 68.36914062 C18.43514536 68.91619866 20.21742517 69.45859372 22 70 C22 70.99 22 71.98 22 73 C14.99450614 73.25474523 8.84300607 72.34208767 2.21484375 70.02734375 C-1.41900589 68.8661014 -5.06595044 68.11410901 -8.8125 67.4375 C-9.51375 67.30819092 -10.215 67.17888184 -10.9375 67.0456543 C-15.94454187 66.1415408 -20.9300491 65.45267419 -26 65 C-26 65.66 -26 66.32 -26 67 C-27.12535156 66.82210937 -27.12535156 66.82210937 -28.2734375 66.640625 C-34.96193583 65.79824486 -39.39253691 66.06744504 -45.5078125 68.87109375 C-52.83784088 72.19143576 -59.11252976 73.29166285 -67.0546875 72.2734375 C-77.77692662 71.27800416 -88.14290396 73.6087099 -98.3359375 76.7109375 C-107.83703045 79.20781176 -117.92614142 77.00088414 -127.4609375 75.4296875 C-131.8101912 74.90163241 -136.06224725 74.89166738 -140.4375 74.9375 C-141.67790039 74.94426758 -141.67790039 74.94426758 -142.94335938 74.95117188 C-144.96227146 74.96284189 -146.98114574 74.98077282 -149 75 C-149 72 -149 72 -146.875 69.84375 C-137.95501927 62.57202658 -131.84911406 60.11444156 -120.58203125 58.52734375 C-116.74396188 57.96230627 -112.93355185 57.2967245 -109.125 56.5625 C-107.93132813 56.33691406 -106.73765625 56.11132812 -105.5078125 55.87890625 C-101.78356679 54.94577119 -98.51077815 53.54052621 -95 52 C-92.234375 51.19921875 -92.234375 51.19921875 -89.75 50.6875 C-88.91984375 50.50574219 -88.0896875 50.32398438 -87.234375 50.13671875 C-85 50 -85 50 -82 52 C-62.54642381 52.7396797 -42.593998 44.87141578 -27.9375 32.1875 C-25.57002131 29.96980906 -24.18911042 28.4753316 -22.98828125 25.45703125 C-21.84285832 22.60931969 -20.60446378 21.43467567 -18.25 19.5 C-17.53328125 18.89671875 -16.8165625 18.2934375 -16.078125 17.671875 C-14.41171136 16.33122643 -12.71100401 15.03325301 -11 13.75 C-6.43582357 10.03057446 -3.31431005 4.80322598 0 0 Z M22 35 C22 35.66 22 36.32 22 37 C28.14944671 38.16965523 28.14944671 38.16965523 34.0625 36.625 C34.701875 36.08875 35.34125 35.5525 36 35 C36 34.67 36 34.34 36 34 C34.41676312 33.972807 32.83338938 33.95351694 31.25 33.9375 C30.36828125 33.92589844 29.4865625 33.91429687 28.578125 33.90234375 C26.2181162 33.99173802 24.25501476 34.33087179 22 35 Z M31 39 C31 39.66 31 40.32 31 41 C35.95 41.33 40.9 41.66 46 42 C46.2877467 39.06499542 46.2877467 39.06499542 44.8125 37.3125 C40.20727348 33.9776808 35.53803005 36.86445645 31 39 Z M6 42 C4.02 42.99 2.04 43.98 0 45 C2.89186786 46.33304698 2.89186786 46.33304698 5.1875 45.0625 C5.785625 44.711875 6.38375 44.36125 7 44 C6.67 43.34 6.34 42.68 6 42 Z M181 43 C181 43.66 181 44.32 181 45 C181.99 45 182.98 45 184 45 C184 44.34 184 43.68 184 43 C183.01 43 182.02 43 181 43 Z M-16.1875 46.8125 C-22.73205081 48.50792079 -29.28622331 49.88853464 -35.94604492 51.0480957 C-39.58162661 51.6701874 -39.58162661 51.6701874 -43 53 C-42.67 53.99 -42.34 54.98 -42 56 C-37.96565706 55.57975594 -34.62626097 54.93683679 -30.875 53.375 C-27.45895334 51.9967109 -25.60330652 52.09917337 -22 53 C-20.64914193 52.36959957 -19.31747324 51.69748583 -18 51 C-16.865625 50.896875 -15.73125 50.79375 -14.5625 50.6875 C-10.25149374 49.85555142 -8.78798789 48.29489478 -6 45 C-9.5930975 45 -12.74385541 45.89959303 -16.1875 46.8125 Z M66 45 C66 45.66 66 46.32 66 47 C64.35 47.33 62.7 47.66 61 48 C61 48.66 61 49.32 61 50 C60.01 50.495 60.01 50.495 59 51 C60.14928498 51.99951114 61.32066917 52.97362384 62.5 53.9375 C63.1496875 54.48277344 63.799375 55.02804688 64.46875 55.58984375 C67.28319622 57.15776826 69.65219401 57.40749372 72.828125 57.7019043 C76.64400318 58.22564387 80.15225164 59.60511895 83.75 60.9375 C84.49121094 61.20240234 85.23242188 61.46730469 85.99609375 61.74023438 C88.87927892 62.78325379 91.62521572 63.79814471 94.328125 65.25390625 C96.19182121 66.31127542 96.19182121 66.31127542 99 65 C92.31049344 59.83875747 85.53184032 55.50514884 78.03515625 51.609375 C75.35935895 50.19054812 72.80320304 48.68851124 70.25 47.0625 C67.50081318 44.91069593 67.50081318 44.91069593 66 45 Z M111 45 C111.33 46.65 111.66 48.3 112 50 C115.58327753 51.00217064 115.58327753 51.00217064 119 50 C119 48.35 119 46.7 119 45 C116.36 45 113.72 45 111 45 Z M-48 49 C-48.33 49.66 -48.66 50.32 -49 51 C-47.35 50.67 -45.7 50.34 -44 50 C-45.32 49.67 -46.64 49.34 -48 49 Z M107 49 C107.33 49.99 107.66 50.98 108 52 C108 51.01 108 50.02 108 49 C107.67 49 107.34 49 107 49 Z M168 49 C168 49.66 168 50.32 168 51 C169.4562545 51.67119549 170.91507867 52.33681807 172.375 53 C173.59316406 53.556875 173.59316406 53.556875 174.8359375 54.125 C176.91998433 55.12495013 176.91998433 55.12495013 179 55 C179.66 53.35 180.32 51.7 181 50 C176.15274701 48.27653227 172.97721161 47.62697611 168 49 Z M156 55 C156 55.66 156 56.32 156 57 C160.95 55.515 160.95 55.515 166 54 C166 53.34 166 52.68 166 52 C161.70389703 50.01718325 159.41832937 52.28087437 156 55 Z M151 55 C149.515 56.98 149.515 56.98 148 59 C149.32 58.34 150.64 57.68 152 57 C151.67 56.34 151.34 55.68 151 55 Z M202 56 C201.67 56.99 201.34 57.98 201 59 C204.82989106 60.80230168 207.78121808 61.19622241 212 61 C211.5899433 58.92064793 211.5899433 58.92064793 210 57 C207.30341548 56.31209578 204.7982981 56.18053536 202 56 Z M-88 60 C-84 61 -84 61 -84 61 Z M74 60 C74.33 60.66 74.66 61.32 75 62 C75.99 61.67 76.98 61.34 78 61 C76.68 60.67 75.36 60.34 74 60 Z M133 63 C132.67 63.99 132.34 64.98 132 66 C129.93359375 66.73046875 129.93359375 66.73046875 127.4375 67.1875 C126.61121094 67.34605469 125.78492188 67.50460938 124.93359375 67.66796875 C123.97646484 67.83232422 123.97646484 67.83232422 123 68 C123 68.66 123 69.32 123 70 C130.8313525 70.60241173 137.98355913 68.50822044 145 65 C145 64.34 145 63.68 145 63 C143.68 63 142.36 63 141 63 C140.67 62.01 140.34 61.02 140 60 C136.45176068 60 135.58072903 60.67734388 133 63 Z M-95 61 C-95 61.66 -95 62.32 -95 63 C-96.65 63 -98.3 63 -100 63 C-99.67 63.66 -99.34 64.32 -99 65 C-96.69 65 -94.38 65 -92 65 C-91.67 63.68 -91.34 62.36 -91 61 C-92.32 61 -93.64 61 -95 61 Z M80 62 C82.72606304 65.28814599 82.72606304 65.28814599 86.75 66.25 C87.4925 66.1675 88.235 66.085 89 66 C86.06171403 63.49701566 83.82097239 62.53069061 80 62 Z M-135 67 C-135.33 67.66 -135.66 68.32 -136 69 C-135.34 69 -134.68 69 -134 69 C-134.33 68.34 -134.66 67.68 -135 67 Z M-80 69 C-77.36 69 -74.72 69 -72 69 C-71.67 68.34 -71.34 67.68 -71 67 C-74.62528568 66.79859524 -76.86501708 67.14223235 -80 69 Z M108 67 C107.67 67.99 107.34 68.98 107 70 C109.31 70.66 111.62 71.32 114 72 C113.67 70.68 113.34 69.36 113 68 C111.35 67.67 109.7 67.34 108 67 Z M-122 70 C-121.67 70.66 -121.34 71.32 -121 72 C-115.48328169 73.52250148 -109.71937774 74.30915555 -104 74 C-104 73.34 -104 72.68 -104 72 C-110.14778871 70.3722167 -115.64012196 69.79809911 -122 70 Z M91 70 C96.87580032 75.20428028 101.48263334 75.12741299 109 75 C106.05468371 73.03645581 104.51565155 72.55070294 101.125 71.9375 C100.28195312 71.78152344 99.43890625 71.62554687 98.5703125 71.46484375 C97.72210937 71.31144531 96.87390625 71.15804687 96 71 C94.33271451 70.66977587 92.66585806 70.33735118 91 70 Z " fill="#98637d" transform="translate(757,14)"/>
<path d="M0 0 C1.2684375 0.12375 1.2684375 0.12375 2.5625 0.25 C5.05743742 3.99240613 5.20674558 7.39288008 5.625 11.75 C6.16267157 17.5808838 6.16267157 17.5808838 7.5625 23.25 C11.1925 23.25 14.8225 23.25 18.5625 23.25 C21.16844008 27.84243538 22.11477672 31.70489181 22.6875 36.9375 C23.25287142 42.17623646 23.25287142 42.17623646 24.5625 47.25 C23.9025 48.24 23.2425 49.23 22.5625 50.25 C20.6875 49.9375 20.6875 49.9375 18.5625 49.25 C14.53909405 43.21489107 15.43278984 35.28317312 15.5625 28.25 C13.2525 28.58 10.9425 28.91 8.5625 29.25 C6.34851154 35.15396924 6.69094255 38.24131554 8.5625 44.25 C9.19921875 46.42578125 9.19921875 46.42578125 9.5625 48.25 C8.5625 49.25 8.5625 49.25 6 49.3125 C5.195625 49.291875 4.39125 49.27125 3.5625 49.25 C1.10760684 44.12674471 0.05908297 39.91104589 -0.4375 34.25 C-2.0875 33.59 -3.7375 32.93 -5.4375 32.25 C-5.1875 30.4375 -5.1875 30.4375 -4.4375 28.25 C-3.40302734 27.71246094 -3.40302734 27.71246094 -2.34765625 27.1640625 C-0.25951922 25.48241587 -0.25951922 25.48241587 -0.28173828 23.42016602 C-0.46158769 21.06875296 -0.76542967 18.76818647 -1.125 16.4375 C-1.23005859 15.64279297 -1.33511719 14.84808594 -1.44335938 14.02929688 C-1.90844673 10.57966125 -2.45357723 7.16240345 -3.08203125 3.73828125 C-3.19933594 2.91714844 -3.31664062 2.09601562 -3.4375 1.25 C-2.4375 0.25 -2.4375 0.25 0 0 Z " fill="#98637d" transform="translate(475.4375,44.75)"/>
<path d="M0 0 C2.10394804 2.58947451 2.11976595 4.72331814 1.95703125 7.99609375 C1.48571665 10.840616 0.39658024 12.75145585 -1.375 15 C-4.47548928 16.55024464 -6.95394218 16.28992015 -10.375 16 C-13.47667229 14.13899663 -15.0101757 12.66331691 -16.75 9.5 C-17.43975129 6.74099484 -17.39143249 5.62105434 -16.375 3 C-11.49600616 -0.77277805 -5.82295455 -2.45177034 0 0 Z M-10.375 5 C-11.30565133 7.60582371 -11.52417407 8.64198224 -10.4375 11.25 C-10.086875 11.8275 -9.73625 12.405 -9.375 13 C-6.95880177 13.25030977 -6.95880177 13.25030977 -4.375 13 C-3.715 12.01 -3.055 11.02 -2.375 10 C-4.72777269 7.27573689 -6.99996331 6.1858237 -10.375 5 Z " fill="#98637d" transform="translate(993.375,49)"/>
<path d="M0 0 C0.99 0.33 1.98 0.66 3 1 C3 3.31 3 5.62 3 8 C1.0625 7.25 1.0625 7.25 -1 6 C-1.875 4 -1.875 4 -2 2 C-1.34 1.34 -0.68 0.68 0 0 Z " fill="#98637d" transform="translate(495,51)"/>
<path d="M0 0 C4.65565038 2.51523485 7.86436289 8.20957582 9.84375 12.99609375 C10.61897458 18.39818504 10.61653021 22.66787777 7.84375 27.43359375 C4.53347406 30.26112112 1.14830907 32.96916117 -3.15625 33.99609375 C-6.58304563 32.69929906 -8.4708745 31.28257597 -10.15625 27.99609375 C-10.54749367 24.20242747 -10.60131848 20.5022706 -9.515625 16.828125 C-9.39703125 16.22355469 -9.2784375 15.61898437 -9.15625 14.99609375 C-9.81625 14.39796875 -10.47625 13.79984375 -11.15625 13.18359375 C-13.15625 10.99609375 -13.15625 10.99609375 -13.15625 7.49609375 C-12.08680285 3.75302871 -11.2106516 2.33181262 -8.15625 -0.00390625 C-4.97475427 -1.06440483 -3.18566316 -0.97864652 0 0 Z M-5.15625 4.99609375 C-5.81625 6.31609375 -6.47625 7.63609375 -7.15625 8.99609375 C-5.17625 8.66609375 -3.19625 8.33609375 -1.15625 7.99609375 C-2.94784049 15.54636797 -2.94784049 15.54636797 -4.34375 18.55859375 C-5.46488845 21.9220091 -4.8285796 24.56721278 -4.15625 27.99609375 C0.23756209 27.4939438 2.67794795 26.07395686 5.84375 22.99609375 C6.75549669 20.66874036 6.99130359 19.46941499 6.2421875 17.06640625 C3.86566171 12.5491931 1.41986157 8.66390049 -2.15625 4.99609375 C-3.14625 4.99609375 -4.13625 4.99609375 -5.15625 4.99609375 Z " fill="#98637d" transform="translate(521.15625,61.00390625)"/>
<path d="M0 0 C2.5 0.125 2.5 0.125 3.5 1.125 C3.66011042 3.31021072 3.77750929 5.49860146 3.875 7.6875 C4.52715507 17.28488655 6.78449274 23.17042937 13.5 30.125 C12.53125 32.11328125 12.53125 32.11328125 10.5 34.125 C7.53873215 34.39885709 4.94381263 34.45305339 2 34.3125 C0.37252104 34.26502509 -1.25509538 34.22204633 -2.8828125 34.18359375 C-3.67333008 34.16409668 -4.46384766 34.14459961 -5.27832031 34.12451172 C-8.18457835 34.12515046 -10.99939077 34.47366158 -13.875 34.875 C-18.17230663 35.30145028 -18.17230663 35.30145028 -20.9375 33.8125 C-23.28582914 29.77337387 -24.92475868 25.51556624 -26.5 21.125 C-26.87511719 21.89585938 -27.25023437 22.66671875 -27.63671875 23.4609375 C-28.14847656 24.46382812 -28.66023437 25.46671875 -29.1875 26.5 C-29.68636719 27.49773437 -30.18523438 28.49546875 -30.69921875 29.5234375 C-32.73907188 32.47038367 -34.10527573 33.1649928 -37.5 34.125 C-39.5342104 32.0907896 -38.86981283 27.99378968 -39 25.1875 C-39.33122773 18.80718409 -39.79422321 12.47699107 -40.5 6.125 C-39.18 5.465 -37.86 4.805 -36.5 4.125 C-33.91073669 6.71426331 -34.12601957 8.15205279 -33.875 11.75 C-33.80023437 12.75289062 -33.72546875 13.75578125 -33.6484375 14.7890625 C-33.57496094 15.94535156 -33.57496094 15.94535156 -33.5 17.125 C-32.51 17.125 -31.52 17.125 -30.5 17.125 C-30.21125 16.34125 -29.9225 15.5575 -29.625 14.75 C-28.5 12.125 -28.5 12.125 -26.5 10.125 C-23.875 10 -23.875 10 -21.5 10.125 C-18.05903827 15.75566465 -17.38943501 21.65828431 -16.5 28.125 C-12.12320187 27.25342981 -9.72770208 25.2123672 -6.5 22.125 C-4.24304089 17.87298148 -4.11142304 13.59213217 -3.9375 8.875 C-3.57771358 0.17888568 -3.57771358 0.17888568 0 0 Z M-1.5 24.125 C-2.16 25.445 -2.82 26.765 -3.5 28.125 C-1.85 28.125 -0.2 28.125 1.5 28.125 C0.84 26.805 0.18 25.485 -0.5 24.125 C-0.83 24.125 -1.16 24.125 -1.5 24.125 Z " fill="#98637d" transform="translate(575.5,56.875)"/>
<path d="M0 0 C3.64154183 1.75333496 5.48845447 3.27678046 7.8125 6.5625 C9.63979289 11.85203204 11.04594967 17.63315608 9.33984375 23.125 C6.94604457 27.62185351 3.5189216 30.7405392 -1 33 C-5.13081458 33.46763939 -7.27855258 33.46493278 -10.8125 31.1875 C-13.50119839 27.26968235 -14.0185677 23.98111361 -14.640625 19.328125 C-14.75833594 17.04467842 -14.75833594 17.04467842 -16 16 C-16.6989547 10.29186997 -15.33550539 7.21576547 -12.2890625 2.6015625 C-9.24500364 -1.18045002 -4.43993643 -0.53069947 0 0 Z M-11 8 C-11.8042208 10.59855733 -11.8042208 10.59855733 -12 13 C-8.535 12.505 -8.535 12.505 -5 12 C-4.8125 14.875 -4.8125 14.875 -5 18 C-5.99 18.66 -6.98 19.32 -8 20 C-8.41666667 23 -8.41666667 23 -8 26 C-6.18192915 28.17920507 -6.18192915 28.17920507 -3.6875 28.5 C-0.38867191 27.88626454 1.06177997 26.50648584 3.05078125 23.83984375 C5.06925188 19.92749945 4.60073401 16.06023544 3.41796875 12.00390625 C2.07401685 8.54700324 1.13333055 7.08888703 -2 5 C-6.01400207 4.48538435 -8.16956683 5.06847993 -11 8 Z " fill="#98637d" transform="translate(454,63)"/>
<path d="M0 0 C3.96918805 2.1966233 5.48963884 4.21701212 7.265625 8.38671875 C7.97137967 12.93491553 7.47864425 14.26980922 4.828125 18.01171875 C-3.10475756 25.84766181 -3.10475756 25.84766181 -9.109375 26.32421875 C-12.86882645 26.25611275 -12.86882645 26.25611275 -15.109375 24.44921875 C-17.70227125 18.5008097 -17.23571103 13.7700811 -15.109375 7.76171875 C-14.70589844 6.5603125 -14.30242187 5.35890625 -13.88671875 4.12109375 C-10.4132282 -2.17708045 -6.02027827 -2.72291212 0 0 Z M-5.171875 4.01171875 C-5.419375 4.75421875 -5.666875 5.49671875 -5.921875 6.26171875 C-7.171875 9.01171875 -7.171875 9.01171875 -9.296875 10.94921875 C-11.4777469 12.93676724 -11.4777469 12.93676724 -11.484375 16.13671875 C-11.34715574 18.95111048 -11.34715574 18.95111048 -10.171875 21.01171875 C-6.64279164 21.42690503 -5.1599301 21.00516077 -1.984375 19.26171875 C1.27968582 16.67785891 1.27968582 16.67785891 2.828125 13.01171875 C2.72319336 9.75883798 1.5957537 8.74955626 -0.609375 6.26171875 C-2.85400204 3.79178503 -2.85400204 3.79178503 -5.171875 4.01171875 Z " fill="#98637d" transform="translate(108.171875,70.98828125)"/>
<path d="M0 0 C2.475 0.99 2.475 0.99 5 2 C5.33 7.61 5.66 13.22 6 19 C11.55810604 20.40723561 11.55810604 20.40723561 15 19 C14.97679687 17.86820313 14.95359375 16.73640625 14.9296875 15.5703125 C14.91093099 14.08854825 14.89273066 12.60677688 14.875 11.125 C14.85824219 10.37863281 14.84148437 9.63226563 14.82421875 8.86328125 C14.8066041 6.90805539 14.89679811 4.95257979 15 3 C15.66 2.34 16.32 1.68 17 1 C19.625 1.375 19.625 1.375 22 2 C22.12117188 3.18078125 22.24234375 4.3615625 22.3671875 5.578125 C22.5360552 7.13546043 22.70534835 8.69274977 22.875 10.25 C22.95363281 11.02730469 23.03226563 11.80460937 23.11328125 12.60546875 C23.23896484 13.73662109 23.23896484 13.73662109 23.3671875 14.890625 C23.44050293 15.58188477 23.51381836 16.27314453 23.58935547 16.98535156 C23.99561387 19.4238376 23.99561387 19.4238376 26 23 C30.62 23 35.24 23 40 23 C37.18564768 27.22152847 33.69844583 28.36506784 29 30 C25.75 30.5625 25.75 30.5625 23 30 C20.125 27.625 20.125 27.625 18 25 C18 24.34 18 23.68 18 23 C16.80375 23.495 15.6075 23.99 14.375 24.5 C10.75959117 25.83501846 7.88538109 26.61812881 4 26 C1.22606274 23.75086168 -0.770808 21.78632862 -1.23706055 18.15234375 C-1.39812353 15.76871676 -1.54904865 13.3850552 -1.6875 11 C-1.74744141 10.16726562 -1.80738281 9.33453125 -1.86914062 8.4765625 C-1.91619141 7.67992188 -1.96324219 6.88328125 -2.01171875 6.0625 C-2.05772217 5.33160156 -2.10372559 4.60070312 -2.15112305 3.84765625 C-2 2 -2 2 0 0 Z " fill="#98637d" transform="translate(121,69)"/>
<path d="M0 0 C4.875 0.875 4.875 0.875 6 2 C6.36760731 4.32817964 6.70241581 6.6618385 7 9 C8.98 6.69 10.96 4.38 13 2 C15.875 2.5 15.875 2.5 19 4 C21.05253427 9.4112267 21.20499268 14.26020509 21 20 C23.80496817 17.52158036 25.32957227 14.79743793 27.0625 11.5 C28.61769555 8.555813 30.15122196 5.77316705 32 3 C34.475 3.495 34.475 3.495 37 4 C38.77401632 8.62974991 39.39641621 12.96044843 39.625 17.875 C39.66367188 18.56335938 39.70234375 19.25171875 39.7421875 19.9609375 C39.83548166 21.64023246 39.91878238 23.32007767 40 25 C41.65 25.33 43.3 25.66 45 26 C44.505 27.485 44.505 27.485 44 29 C38.62845011 30.22080679 38.62845011 30.22080679 35.6875 29.1875 C34 28 34 28 33 26 C32.93003986 24.29297265 32.91559846 22.58331997 32.9375 20.875 C32.94652344 19.96492188 32.95554688 19.05484375 32.96484375 18.1171875 C32.97644531 17.41851562 32.98804688 16.71984375 33 16 C30.39974271 18.32165829 28.67875323 20.48110705 27.125 23.5625 C25.16535746 27.21527369 22.88992253 28.49707539 19 30 C15.67402719 26.46894039 15.53229836 23.49764465 15.3125 18.75 C15.24675781 17.48671875 15.18101562 16.2234375 15.11328125 14.921875 C15.07589844 13.95765625 15.03851563 12.9934375 15 12 C14.01 12 13.02 12 12 12 C10.07794619 16.58335908 8.54269924 21.27934033 7 26 C6.34 26 5.68 26 5 26 C5 26.66 5 27.32 5 28 C4.01 27.67 3.02 27.34 2 27 C1.46928969 22.87620737 0.95210526 18.75083081 0.4375 14.625 C0.28603516 13.449375 0.13457031 12.27375 -0.02148438 11.0625 C-0.16005859 9.94101563 -0.29863281 8.81953125 -0.44140625 7.6640625 C-0.57232666 6.62717285 -0.70324707 5.5902832 -0.83813477 4.52197266 C-1 2 -1 2 0 0 Z " fill="#98637d" transform="translate(161,68)"/>
<path d="M0 0 C3.05618576 1.16854162 4.25405786 2.07290616 6.125 4.8125 C7.0959173 9.92540393 6.88379124 14.36785796 3.9375 18.75 C1.69187424 21.47041521 -0.67948156 23.26039104 -3.875 24.8125 C-0.23383 26.47477326 2.62790369 27.0849556 6.625 27.0625 C7.5428125 27.06765625 8.460625 27.0728125 9.40625 27.078125 C12.59555501 26.89431377 12.59555501 26.89431377 17.125 24.8125 C17.785 16.8925 18.445 8.9725 19.125 0.8125 C20.775 0.8125 22.425 0.8125 24.125 0.8125 C25.71912284 4.00074568 25.22674735 7.44146662 25.1875 10.9375 C25.18298828 11.69160156 25.17847656 12.44570312 25.17382812 13.22265625 C25.16203499 15.08597127 25.14409942 16.94924555 25.125 18.8125 C25.46273437 18.13703125 25.80046875 17.4615625 26.1484375 16.765625 C28.140625 12.78125 30.1328125 8.796875 32.125 4.8125 C34.4375 4.875 34.4375 4.875 37.125 5.8125 C40.38676168 11.36957545 41.15599428 17.50826281 42.125 23.8125 C44.765 24.1425 47.405 24.4725 50.125 24.8125 C50.125 25.8025 50.125 26.7925 50.125 27.8125 C45.942398 29.1105489 43.15905779 29.9685842 38.8125 29.3125 C35.37251821 27.39251016 34.53698206 25.42089861 33.125 21.8125 C32.465 21.8125 31.805 21.8125 31.125 21.8125 C30.568125 22.905625 30.01125 23.99875 29.4375 25.125 C27.51287782 28.47098626 25.84841215 30.41622044 22.125 31.8125 C20 31 20 31 18.125 29.8125 C15.11933894 29.64212302 15.11933894 29.64212302 12.44140625 30.78515625 C8.60664183 31.97307503 5.0392114 32.21658226 1.0625 32.25 C0.36833984 32.28287109 -0.32582031 32.31574219 -1.04101562 32.34960938 C-5.07864994 32.39178789 -6.67802587 31.97800023 -9.80859375 29.34765625 C-10.49050781 28.51105469 -11.17242187 27.67445312 -11.875 26.8125 C-12.205 26.4825 -12.535 26.1525 -12.875 25.8125 C-13.65834448 17.10532487 -12.47199368 10.77317207 -6.8125 3.9375 C-3.07219761 -0.30721976 -3.07219761 -0.30721976 0 0 Z M-1.875 6.8125 C-4.30103384 9.79305586 -5.78832443 11.81573092 -6.125 15.6875 C-6.0425 16.38875 -5.96 17.09 -5.875 17.8125 C-3.43782742 17.54215366 -3.43782742 17.54215366 -0.875 16.8125 C1.5544516 13.1683226 1.28679575 11.10008728 1.125 6.8125 C0.135 6.8125 -0.855 6.8125 -1.875 6.8125 Z " fill="#98637d" transform="translate(224.875,67.1875)"/>
<path d="M0 0 C3.43317777 1.12103764 5.4793748 2.49284907 8.0625 5 C8.0625 5.66 8.0625 6.32 8.0625 7 C10.3725 7.33 12.6825 7.66 15.0625 8 C15.0625 8.33 15.0625 8.66 15.0625 9 C13.4125 9 11.7625 9 10.0625 9 C9.753125 10.134375 9.44375 11.26875 9.125 12.4375 C8.0625 16 8.0625 16 7.0625 17 C5.13671875 17.16796875 5.13671875 17.16796875 2.75 17.1875 C1.97011719 17.20167969 1.19023438 17.21585938 0.38671875 17.23046875 C-2.17185679 16.97676126 -3.76449823 16.35510133 -5.9375 15 C-7.47186934 11.54766899 -7.26802713 7.70190387 -6.9375 4 C-4.82556314 0.75086637 -3.90414929 0 0 0 Z M-1.625 7.25 C-2.058125 7.8275 -2.49125 8.405 -2.9375 9 C-2.70992269 11.16299211 -2.70992269 11.16299211 -1.9375 13 C-1.2775 13 -0.6175 13 0.0625 13 C1.5231285 10.35261084 2.0625 9.10551666 2.0625 6 C-0.0196538 5.80159082 -0.0196538 5.80159082 -1.625 7.25 Z M4.0625 11 C4.3925 11.66 4.7225 12.32 5.0625 13 C5.3925 12.34 5.7225 11.68 6.0625 11 C5.4025 11 4.7425 11 4.0625 11 Z " fill="#98637d" transform="translate(917.9375,80)"/>
<path d="M0 0 C3.31364261 2.10868166 6.22670555 4.45341111 8 8 C8.69733656 15.08958838 8.69733656 15.08958838 5.75 18.9375 C0.971688 22.521234 -4.1816934 22.57477206 -10 22 C-14.06662662 20.44728802 -15.57519602 19.63720598 -18 16 C-18.67697143 12.2588421 -18.82922523 8.56594725 -17.01953125 5.1484375 C-12.16944768 -0.91043613 -7.26937338 -2.13805099 0 0 Z M-10 9 C-10.38428348 13.2109755 -10.38428348 13.2109755 -8.625 16.875 C-7.05533986 18.18973666 -7.05533986 18.18973666 -5 18 C-6.09068668 14.22454612 -6.9083091 11.52956528 -10 9 Z M-3 11 C-3.59070014 12.94603274 -3.59070014 12.94603274 -4 15 C-2.87465895 16.35618499 -2.87465895 16.35618499 0.0625 16.0625 C1.031875 16.041875 2.00125 16.02125 3 16 C3.33 14.68 3.66 13.36 4 12 C1.69 11.67 -0.62 11.34 -3 11 Z " fill="#98637d" transform="translate(744,83)"/>
<path d="M0 0 C2.3125 3.0625 2.3125 3.0625 4 6 C3.34 7.32 2.68 8.64 2 10 C-5.38461538 9.50769231 -5.38461538 9.50769231 -8.5 6.9375 C-8.995 6.298125 -9.49 5.65875 -10 5 C-9.1875 2.5625 -9.1875 2.5625 -8 0 C-4.58706332 -1.13764556 -3.35106958 -1.22600107 0 0 Z M-6 3 C-5.67 4.32 -5.34 5.64 -5 7 C-4.01 7 -3.02 7 -2 7 C-2.66 5.68 -3.32 4.36 -4 3 C-4.66 3 -5.32 3 -6 3 Z " fill="#98637d" transform="translate(946,85)"/>
<path d="M0 0 C3.70732863 1.57875647 6.41039872 3.32106519 9.0625 6.375 C10 9 10 9 9.5 12 C7.11461298 16.77077405 4.59684036 19.30703154 -0.3125 21.4375 C-4.92761609 22.14150076 -7.58680099 21.44570313 -12 20 C-13.85423068 18.14576932 -13.30181432 15.30362802 -13.375 12.8125 C-13.34290777 5.50349548 -13.34290777 5.50349548 -10.625 2.25 C-6.59649781 -1.20300187 -5.13826936 -1.26033022 0 0 Z M-5.625 8.5 C-6.07875 8.995 -6.5325 9.49 -7 10 C-6.67 10.99 -6.34 11.98 -6 13 C-2.99152582 14.22520264 -2.99152582 14.22520264 0 15 C0.78282648 13.20800528 0.78282648 13.20800528 1 11 C-0.21530734 8.71252627 -0.21530734 8.71252627 -2 7 C-4.12364481 6.77390663 -4.12364481 6.77390663 -5.625 8.5 Z M6 9 C7 12 7 12 7 12 Z M-11 15 C-11 15.99 -11 16.98 -11 18 C-6.92630576 20.03684712 -4.41062136 20.0257259 0 19 C0 18.34 0 17.68 0 17 C-3.63 16.34 -7.26 15.68 -11 15 Z " fill="#98637d" transform="translate(887,102)"/>
</svg>
