<?xml version="1.0" encoding="UTF-8"?>
<svg version="1.1" xmlns="http://www.w3.org/2000/svg" width="1364" height="132" viewBox="0 0 1364 132">
<path d="M0 0 C4.875 0.875 4.875 0.875 6 2 C7.65463915 24.15390659 5.15686502 45.05371732 -9.28125 62.8046875 C-11.31465113 64.93721207 -11.31465113 64.93721207 -11 68.0625 C-9.79385036 71.60556458 -9.10621521 72.8786823 -6 75 C-2.69814168 75.91228739 0.61195557 76.50860424 4 77 C4 77.99 4 78.98 4 80 C-0.19537488 82.09768744 -5.44256409 81.54835459 -10 81 C-13.0625 78.75 -13.0625 78.75 -15 76 C-15.598125 75.236875 -16.19625 74.47375 -16.8125 73.6875 C-17.204375 73.130625 -17.59625 72.57375 -18 72 C-18.721875 72.28875 -19.44375 72.5775 -20.1875 72.875 C-21.115625 73.24625 -22.04375 73.6175 -23 74 C-23.763125 74.37125 -24.52625 74.7425 -25.3125 75.125 C-28.99359944 76.32349749 -32.13656807 76.13096379 -36 76 C-36.33 75.01 -36.66 74.02 -37 73 C-37.59167969 73.3609375 -38.18335938 73.721875 -38.79296875 74.09375 C-39.97826172 74.78984375 -39.97826172 74.78984375 -41.1875 75.5 C-42.35345703 76.19609375 -42.35345703 76.19609375 -43.54296875 76.90625 C-46.29230755 78.13012101 -48.02390017 78.35713198 -51 78 C-54.20855036 75.22503752 -54.9363768 73.53625269 -55.4375 69.3125 C-55.07840736 62.99246956 -53.47855264 57.19542664 -49.9375 51.9375 C-45.77574194 49.19251064 -41.95153112 48.57651379 -37 49 C-33.37906406 51.03677647 -31.40111762 53.11023062 -30 57 C-30.2421875 60.234375 -30.2421875 60.234375 -30.875 63.75 C-31.07867187 64.92046875 -31.28234375 66.0909375 -31.4921875 67.296875 C-31.65976562 68.18890625 -31.82734375 69.0809375 -32 70 C-30.7625 69.71125 -29.525 69.4225 -28.25 69.125 C-27.55390625 68.96257812 -26.8578125 68.80015625 -26.140625 68.6328125 C-23.93038723 67.97942104 -22.02773221 67.08693753 -20 66 C-19.98582031 64.92105469 -19.97164063 63.84210938 -19.95703125 62.73046875 C-19.4055648 41.75580902 -13.52509303 16.59897781 0 0 Z M0 11 C-8.24420954 25.04233494 -14.22021497 42.60971405 -14 59 C-10.65438768 57.95964181 -9.86993443 56.79304345 -7.96484375 53.76171875 C-7.27140981 52.41257394 -6.59652793 51.05378128 -5.9375 49.6875 C-5.4125293 48.60553345 -5.4125293 48.60553345 -4.87695312 47.50170898 C0.78263228 35.42712741 1.42355592 24.09885903 1 11 C0.67 11 0.34 11 0 11 Z M-44.125 54.5625 C-46.93599967 56.71759975 -47.78925897 58.67046217 -49 62 C-49.23152132 65.01962912 -49.18126989 67.97883518 -49 71 C-47.02 71.99 -47.02 71.99 -45 73 C-45 71.35 -45 69.7 -45 68 C-43.35 68 -41.7 68 -40 68 C-37.78145293 63.37802694 -36.61718841 60.23175837 -37 55 C-39.63339607 54.26850109 -41.4561719 53.8560455 -44.125 54.5625 Z " fill="#98637d" transform="translate(332,20)"/>
<path d="M0 0 C3.59833186 2.01857641 4.39505115 4.63060158 5.5625 8.4375 C6.015625 10.8125 6.015625 10.8125 6 13 C3.62092892 16.19475259 1.29651215 17.80232523 -2 20 C-5.25 20.1171875 -5.25 20.1171875 -9 19.875 C-10.2375 19.81054688 -11.475 19.74609375 -12.75 19.6796875 C-16 19 -16 19 -17.90234375 17.15234375 C-19.60487897 13.81392059 -19.56455771 11.70098946 -19 8 C-13.93707357 0.1811075 -9.07581293 -0.91430412 0 0 Z M-10 10 C-10 10.99 -10 11.98 -10 13 C-7.03 13 -4.06 13 -1 13 C-1.66 11.68 -2.32 10.36 -3 9 C-6.62885324 8.84850702 -6.62885324 8.84850702 -10 10 Z M-17 11 C-16.65555119 13.47266765 -16.65555119 13.47266765 -16 16 C-15.34 16.33 -14.68 16.66 -14 17 C-14.66 15.02 -15.32 13.04 -16 11 C-16.33 11 -16.66 11 -17 11 Z " fill="#98637d" transform="translate(813,20)"/>
<path d="M0 0 C2.375 2 2.375 2 4 4 C3.4375 5.8125 3.4375 5.8125 2 8 C-1.99094822 10.06938056 -4.47629091 11 -9 11 C-9.36180905 3.64321608 -9.36180905 3.64321608 -7.875 1 C-5.05480125 -0.504106 -3.14389944 -0.44912849 0 0 Z M-6 3 C-6.66 4.65 -7.32 6.3 -8 8 C-5.58380177 8.25030977 -5.58380177 8.25030977 -3 8 C-2.34 7.01 -1.68 6.02 -1 5 C-3.475 4.01 -3.475 4.01 -6 3 Z " fill="#98637d" transform="translate(834,29)"/>
<path d="M0 0 C2.4375 1.1875 2.4375 1.1875 4 3 C5.30308084 6.90924251 5.30276121 10.9127236 5 15 C3.45737187 17.10358381 2.31891683 17.84054159 0 19 C-2.3329866 19.04022391 -4.66706666 19.04320247 -7 19 C-7 18.34 -7 17.68 -7 17 C-8.32 17 -9.64 17 -11 17 C-11.33 17.66 -11.66 18.32 -12 19 C-14 17 -14 17 -14.25 14.1875 C-14.00289113 11.03686185 -13.33686973 8.84084818 -12 6 C-11.01 6 -10.02 6 -9 6 C-9.66 5.67 -10.32 5.34 -11 5 C-10.625 3.0625 -10.625 3.0625 -10 1 C-6.80962203 -0.59518898 -3.47144801 -0.3780785 0 0 Z M-10 9 C-10.91428339 10.90708843 -10.91428339 10.90708843 -11 13 C-9.16116119 15.28728734 -9.16116119 15.28728734 -6.375 15.125 C-5.59125 15.08375 -4.8075 15.0425 -4 15 C-4 15.66 -4 16.32 -4 17 C-0.62537285 16.45276317 1.08235 15.9451 4 14 C3.67 13.01 3.34 12.02 3 11 C2.67 11.66 2.34 12.32 2 13 C-0.51083114 11.74458443 -0.87125446 10.49936512 -2 8 C-5.04386724 7.91773332 -7.07175348 8.02391783 -10 9 Z " fill="#98637d" transform="translate(1176,34)"/>
<path d="M0 0 C1 1 1 1 1.0625 4.5625 C1.041875 5.696875 1.02125 6.83125 1 8 C-0.32 8.33 -1.64 8.66 -3 9 C-3.495 8.01 -3.495 8.01 -4 7 C-9.23296315 8.40271972 -9.23296315 8.40271972 -13 12 C-15.7520384 19.87575218 -16.32303359 28.26957647 -17.32421875 36.50976562 C-19.24818117 51.06461953 -19.24818117 51.06461953 -23 57 C-24.32230115 57.6882891 -25.65503667 58.3571191 -27 59 C-27.33 59.99 -27.66 60.98 -28 62 C-28.99 62 -29.98 62 -31 62 C-31.19634033 61.35039307 -31.39268066 60.70078613 -31.5949707 60.03149414 C-32.49951119 57.04143361 -33.40599351 54.05196505 -34.3125 51.0625 C-34.7755957 49.53012695 -34.7755957 49.53012695 -35.24804688 47.96679688 C-37.4187804 37.82912934 -37.4187804 37.82912934 -42 29 C-42.27972656 29.65484375 -42.55945312 30.3096875 -42.84765625 30.984375 C-48.99600691 44.98126333 -55.36543105 57.7094748 -70 64 C-74.04256384 65.0962885 -76.22036863 65.20990075 -80.25 64.125 C-84.14820176 61.11275318 -85.16380137 57.77469419 -86 53 C-85.6875 49.9375 -85.6875 49.9375 -85 48 C-83.10546875 48.21875 -83.10546875 48.21875 -81 49 C-79.98828125 51.03125 -79.98828125 51.03125 -79.3125 53.5 C-78.63170957 56.51839757 -78.63170957 56.51839757 -77 59 C-71.51452168 59.79788776 -68.53467565 59.11490477 -63.875 56.0625 C-59.00249832 52.34656456 -55.92085911 48.34324826 -53 43 C-52.54882812 42.18144531 -52.09765625 41.36289063 -51.6328125 40.51953125 C-45.1841078 28.21357109 -44.19909634 19.37270961 -46.7578125 5.7578125 C-46.83773437 4.84773438 -46.91765625 3.93765625 -47 3 C-46.34 2.34 -45.68 1.68 -45 1 C-43.68 1 -42.36 1 -41 1 C-38.7913686 5.81883214 -37.85504615 10.84745851 -36.75 16 C-34.98011718 23.99981651 -33.03202928 31.92509754 -30.8125 39.8125 C-30.56274414 40.71935547 -30.31298828 41.62621094 -30.05566406 42.56054688 C-29.69746582 43.80868164 -29.69746582 43.80868164 -29.33203125 45.08203125 C-29.12296143 45.81655518 -28.9138916 46.5510791 -28.69848633 47.30786133 C-28.13069763 49.20803622 -28.13069763 49.20803622 -26 50 C-25.5589357 47.4380733 -25.12233274 44.87548662 -24.6875 42.3125 C-24.48120972 41.11790161 -24.48120972 41.11790161 -24.27075195 39.89916992 C-23.50953578 35.39933341 -22.85191229 30.91081893 -22.34375 26.375 C-22.23329346 25.44776123 -22.12283691 24.52052246 -22.0090332 23.56518555 C-21.79928176 21.76947746 -21.60936 19.97130931 -21.44213867 18.17114258 C-20.54394538 10.74076498 -17.46100967 6.95203766 -11.875 2.1875 C-7.60513991 -0.51674472 -5.0806458 -1.73485466 0 0 Z " fill="#98637d" transform="translate(100,34)"/>
<path d="M0 0 C2.51150434 2.90392689 3 4.47894039 3 8.3125 C1.31495521 12.99317997 -0.81310058 15.64810946 -5 18.3125 C-8.80856764 19.83592706 -11.13357022 20.46539937 -15.1875 19.75 C-18.66634574 17.97192329 -20.15395187 16.78307048 -22 13.3125 C-22.33924963 8.75331599 -21.58686644 5.29759724 -19.25 1.375 C-13.51456784 -3.88247948 -6.63011527 -3.72943984 0 0 Z M-13 6.3125 C-15.1875 5.9375 -15.1875 5.9375 -17 5.3125 C-17.66 6.6325 -18.32 7.9525 -19 9.3125 C-15.92000054 12.98480705 -13.7517398 13.88052365 -9 14.3125 C-9.33 12.3325 -9.66 10.3525 -10 8.3125 C-7.69 8.6425 -5.38 8.9725 -3 9.3125 C-3 7.9925 -3 6.6725 -3 5.3125 C-8.28199593 4.11261955 -8.28199593 4.11261955 -13 6.3125 Z M-8 10.3125 C-8 10.9725 -8 11.6325 -8 12.3125 C-7.34 11.9825 -6.68 11.6525 -6 11.3125 C-6.66 10.9825 -7.32 10.6525 -8 10.3125 Z " fill="#98637d" transform="translate(709,39.6875)"/>
<path d="M0 0 C1.67542976 0.28604898 3.34385343 0.61781233 5 1 C6.72741246 5.58977772 7.43260342 9.96302298 7.875 14.8125 C9.16813544 27.06099286 11.53901301 38.88299077 17 50 C17 50.66 17 51.32 17 52 C17.66 52 18.32 52 19 52 C19.03867187 51.08347656 19.03867187 51.08347656 19.078125 50.1484375 C21.37762296 13.0429023 21.37762296 13.0429023 29.375 3.75 C32 2 32 2 34.8125 2.1875 C35.8953125 2.5896875 35.8953125 2.5896875 37 3 C37.495 5.475 37.495 5.475 38 8 C37.071875 8.45375 36.14375 8.9075 35.1875 9.375 C30.67777162 12.4601181 30.0802592 16.86730686 29 22 C28.0914925 28.50304384 27.45604795 35.03322467 26.84594727 41.5703125 C26.63174028 43.82462014 26.39708915 46.07610877 26.16015625 48.328125 C26.10271744 49.00949524 26.04527863 49.69086548 25.98609924 50.3928833 C25.44815371 55.36558522 23.96222403 58.12640901 21 62 C18.8125 62 18.8125 62 16 61 C11.89715166 55.94130546 9.50819759 49.8529254 7.25 43.8125 C6.94707031 43.03197266 6.64414062 42.25144531 6.33203125 41.44726562 C5.12738408 38.29109005 4.06488924 35.33540722 3.421875 32.01171875 C3.28265625 31.34785156 3.1434375 30.68398437 3 30 C2.34 29.67 1.68 29.34 1 29 C0.76667969 29.69351563 0.53335938 30.38703125 0.29296875 31.1015625 C-1.25616986 34.57425388 -3.35295694 37.40641034 -5.6875 40.375 C-6.13448242 40.94790771 -6.58146484 41.52081543 -7.04199219 42.11108398 C-12.02033408 48.40906173 -17.03930694 53.85320413 -24 58 C-25.485 58.928125 -25.485 58.928125 -27 59.875 C-30 61 -30 61 -33.3125 60.3125 C-36 59 -36 59 -37 57 C-37.07033769 55.12620395 -37.0843022 53.24998898 -37.0625 51.375 C-37.05347656 50.37210938 -37.04445313 49.36921875 -37.03515625 48.3359375 C-37.02355469 47.56507812 -37.01195312 46.79421875 -37 46 C-35.35 46.33 -33.7 46.66 -32 47 C-32 49.64 -32 52.28 -32 55 C-26.00079808 53.1788137 -22.2813118 50.86884745 -17.76171875 46.5234375 C-16 45 -16 45 -13 44 C-12.71125 43.278125 -12.4225 42.55625 -12.125 41.8125 C-10.35136271 37.37840677 -7.08190799 34.20369876 -3.91796875 30.68359375 C1.45994226 23.15889952 0.10482298 12.433466 -0.80859375 3.703125 C-0.87175781 2.81109375 -0.93492187 1.9190625 -1 1 C-0.67 0.67 -0.34 0.34 0 0 Z " fill="#98637d" transform="translate(403,39)"/>
<path d="M0 0 C0.99 0 1.98 0 3 0 C2.34309381 3.78239671 1.279869 7.21841526 -0.0625 10.8125 C-0.42472656 11.78832031 -0.78695312 12.76414062 -1.16015625 13.76953125 C-1.43730469 14.50558594 -1.71445312 15.24164063 -2 16 C-0.82244141 15.67515625 -0.82244141 15.67515625 0.37890625 15.34375 C6.06146019 13.8376989 11.11655525 12.59885604 17 13 C16.40625 14.90625 16.40625 14.90625 15 17 C12.09375 17.90625 12.09375 17.90625 8.5 18.5 C-2.05142624 20.53284359 -9.24368838 23.7692347 -17.75 30.390625 C-20 32 -20 32 -22 32 C-22.2475 32.78375 -22.495 33.5675 -22.75 34.375 C-24.20924503 37.43941457 -25.05014956 37.61725761 -28 39 C-29.22527948 40.95021083 -29.22527948 40.95021083 -30 43 C-30.495 43.99 -30.495 43.99 -31 45 C-20.25790023 42.97920895 -11.1062583 40.02616249 -1.48828125 34.8046875 C1.64703796 33.18260746 4.62492421 32.00578295 8 31 C8 30.34 8 29.68 8 29 C14.74023821 26.03620731 19.01663059 25.89432754 26 28 C29.6977107 28.78674696 32.87949964 28.95245948 36.625 28.75 C43.74571235 28.63096074 49.75748742 31.87874371 56 35 C68.11730961 35.89757849 79.83955132 30.83066141 91.08789062 26.87304688 C97.67000801 24.61351404 104.11724567 23.03617722 111 22 C103.14190763 28.59065812 95.08842695 33.13335334 85.5625 36.875 C84.57056641 37.2771875 83.57863281 37.679375 82.55664062 38.09375 C75.30584343 41 75.30584343 41 73 41 C73 41.66 73 42.32 73 43 C73.7326709 43.11625732 74.4653418 43.23251465 75.22021484 43.35229492 C78.03586547 44.00835685 79.98635271 44.91908941 82.4765625 46.36328125 C83.30744385 46.83660889 84.1383252 47.30993652 84.99438477 47.79760742 C85.86248779 48.29752197 86.73059082 48.79743652 87.625 49.3125 C99.13235827 56.25687139 99.13235827 56.25687139 112 59 C111.21625 58.566875 110.4325 58.13375 109.625 57.6875 C107 56 107 56 105 53 C104.56552292 48.99823745 104.96510951 45.37322007 107.421875 42.11328125 C111.02063398 38.82503466 114.01434653 37.24320261 119 37 C119.86625 38.11375 119.86625 38.11375 120.75 39.25 C122.86462626 41.99659059 122.86462626 41.99659059 125.25 43.9375 C127 46 127 46 127.25 49.25 C127.1675 50.1575 127.085 51.065 127 52 C126.01 52 125.02 52 124 52 C124.33 52.66 124.66 53.32 125 54 C123.35 53.67 121.7 53.34 120 53 C120 54.32 120 55.64 120 57 C118.515 57.495 118.515 57.495 117 58 C117.66 58.99 118.32 59.98 119 61 C124.3086849 60.41825155 124.3086849 60.41825155 129 58 C129.845625 57.87625 130.69125 57.7525 131.5625 57.625 C132.366875 57.41875 133.17125 57.2125 134 57 C134.24363281 56.38382813 134.48726562 55.76765625 134.73828125 55.1328125 C136.64490059 51.90985845 139.16068926 51.47269791 142.625 50.25 C143.81351563 49.82203125 145.00203125 49.3940625 146.2265625 48.953125 C147.59941406 48.48132812 147.59941406 48.48132812 149 48 C148.01 47.67 147.02 47.34 146 47 C146.33 46.01 146.66 45.02 147 44 C147.79664063 43.89042969 148.59328125 43.78085937 149.4140625 43.66796875 C163.42560707 41.57135077 169.83923778 35.35164371 178.19921875 24.3203125 C181.25263417 20.3859768 184.42676056 16.47466732 188 13 C188.66 13 189.32 13 190 13 C188.84612899 18.42319377 186.76908991 22.05863724 183.59765625 26.578125 C181.00036262 30.51534273 179.00971882 34.74046321 177 39 C180.465 38.505 180.465 38.505 184 38 C184.33 38.99 184.66 39.98 185 41 C193.2917063 42.77863544 198.20623918 40.71343286 205.6875 37.0625 C207.6866291 36.10583796 209.69042613 35.1588569 211.69921875 34.22265625 C212.57408936 33.79734619 213.44895996 33.37203613 214.3503418 32.93383789 C217.37403609 31.8681758 219.81695737 31.83431056 223 32 C221.50468495 35.9875068 219.28445287 37.35837718 215.6875 39.5 C208.39525838 43.45792511 208.39525838 43.45792511 204 50 C204.721875 50.103125 205.44375 50.20625 206.1875 50.3125 C209 51 209 51 210.9921875 52.3984375 C215.42372052 54.75808495 220.03089698 55.39676675 224.9375 56.3125 C234.42699829 58.16343562 243.69609498 60.42041991 252.95483398 63.20825195 C258.95236359 65.0680798 258.95236359 65.0680798 265 64 C266.99713472 62.86949977 266.99713472 62.86949977 268.8125 61.375 C269.48925781 60.84390625 270.16601562 60.3128125 270.86328125 59.765625 C274.30910501 56.91825327 277.67584863 53.9881999 281 51 C281.66 51.33 282.32 51.66 283 52 C282 55 282 55 279.6875 57.25 C276.66887748 60.33882304 275.01059896 63.20220196 273 67 C280.31595009 65.97668339 285.74181244 63.85977343 292 60 C297.7748439 56.51957585 303.62775914 53.89427176 309.91064453 51.44165039 C315.00683629 49.43446276 320.0210062 47.28258477 325 45 C325.69351562 44.69215576 326.38703125 44.38431152 327.1015625 44.06713867 C331.47501548 42.0308024 334.92637069 39.61051506 338.49365234 36.36108398 C340.5418415 34.51041064 342.47649386 33.12893696 345 32 C347.8125 32.3125 347.8125 32.3125 350 33 C350 32.34 350 31.68 350 31 C351.50390625 29.5546875 351.50390625 29.5546875 353.5625 27.875 C357.18233419 24.80420591 360.25886479 21.54122394 363.33203125 17.93359375 C365.75836133 15.12086919 368.27917681 12.53099832 371 10 C371.66 10 372.32 10 373 10 C373 10.66 373 11.32 373 12 C372.29875 12.66 371.5975 13.32 370.875 14 C365.49105852 19.16919737 362.16591518 25.9479444 360 33 C361.29035156 32.96519531 362.58070313 32.93039063 363.91015625 32.89453125 C365.62759106 32.86637658 367.34504007 32.83907823 369.0625 32.8125 C370.33383789 32.77479492 370.33383789 32.77479492 371.63085938 32.73632812 C377.29632831 32.67070493 380.91603336 33.53941024 386 36 C388.40453576 36.50822038 388.40453576 36.50822038 390.6875 36.75 C398.36067041 38.11516529 404.61968424 42.74645616 411 47 C425.10046127 50.215593 436.05138608 45.6377004 448.81787109 39.72851562 C451 39 451 39 454 40 C451.31720027 42.68279973 448.61320866 43.01457946 445 44 C444.67 44.33 444.34 44.66 444 45 C444.66 45.66 445.32 46.32 446 47 C441.25 51 441.25 51 439 51 C441.2309998 53.50461716 443.2003529 54.69464554 446.31640625 55.90234375 C447.16396484 56.23556641 448.01152344 56.56878906 448.88476562 56.91210938 C450.21024414 57.41967773 450.21024414 57.41967773 451.5625 57.9375 C453.29296875 58.61328125 455.0234375 59.2890625 456.75390625 59.96484375 C457.62031738 60.2985498 458.48672852 60.63225586 459.37939453 60.97607422 C461.98491348 61.99410538 464.56708658 63.06066314 467.15234375 64.12890625 C476.32175155 67.75014496 484.23461289 68.36475728 494.0625 68.375 C495.92358398 68.41173828 495.92358398 68.41173828 497.82226562 68.44921875 C504.75874831 68.47148675 509.38405821 68.22238714 515 64 C514.67 65.65 514.34 67.3 514 69 C519.74486623 70.90695977 525.12894055 72.334384 531.1875 72.69140625 C533 73 533 73 535 75 C532.69 75.33 530.38 75.66 528 76 C531.50776784 77.60355101 534.14354879 78.22036864 538 78 C537.34 76.35 536.68 74.7 536 73 C536.886875 72.5875 537.77375 72.175 538.6875 71.75 C541.81312366 70.09872712 544.31905614 68.28668741 547 66 C546.34 67.65 545.68 69.3 545 71 C548.86648272 69.95902388 552.49461443 68.96301592 556 67 C556 68.32 556 69.64 556 71 C562.93 71.495 562.93 71.495 570 72 C570 72.66 570 73.32 570 74 C570.639375 73.731875 571.27875 73.46375 571.9375 73.1875 C578.2508914 70.73945027 584.24598517 68.71851222 591 68 C590.67 68.66 590.34 69.32 590 70 C588.515 70.495 588.515 70.495 587 71 C586.69707031 71.66644531 586.39414063 72.33289063 586.08203125 73.01953125 C585.54642578 73.99986328 585.54642578 73.99986328 585 75 C583.01171875 75.57421875 583.01171875 75.57421875 580.6875 75.6875 C579.48867187 75.76871094 579.48867187 75.76871094 578.265625 75.8515625 C577.51796875 75.90054688 576.7703125 75.94953125 576 76 C574.32829127 76.30704854 572.6579309 76.62562851 571 77 C571 77.99 571 78.98 571 80 C570.40574219 79.69964844 569.81148437 79.39929688 569.19921875 79.08984375 C561.17303367 75.40753489 554.83046911 75.55933377 546.4375 78.0625 C545.633125 78.371875 544.82875 78.68125 544 79 C543.34 79 542.68 79 542 79 C542 79.66 542 80.32 542 81 C538.37 81 534.74 81 531 81 C531.66 82.65 532.32 84.3 533 86 C533 86.99 533 87.98 533 89 C532.18208984 88.25943359 532.18208984 88.25943359 531.34765625 87.50390625 C526.69694301 83.55278748 523.47633648 81.33882584 517.33984375 81.1015625 C514.69722716 80.98685794 512.22057365 80.56729952 509.625 80.0625 C508.40683594 79.83240234 508.40683594 79.83240234 507.1640625 79.59765625 C505 79 505 79 502 77 C497.0084132 76.50084132 491.85753045 76.70465855 487 78 C487 78.99 487 79.98 487 81 C487.66 81 488.32 81 489 81 C490.76171875 82.86328125 490.76171875 82.86328125 492.6875 85.3125 C493.33074219 86.11300781 493.97398437 86.91351563 494.63671875 87.73828125 C495.08660156 88.48464844 495.53648437 89.23101562 496 90 C495.67 90.99 495.34 91.98 495 93 C491.8436023 91.55421239 489.2786121 89.7809434 486.5625 87.625 C485.82128906 87.03976563 485.08007812 86.45453125 484.31640625 85.8515625 C482.74209385 84.59317451 481.2007204 83.29268489 479.69140625 81.95703125 C476.45979562 79.60719536 473.11492945 78.34823959 469.375 77.0625 C463.62452844 75.00081261 458.06213155 72.75302262 452.52734375 70.15625 C449.135479 68.60448498 445.67414855 67.25912691 442.19921875 65.90625 C440 65 440 65 437 63.375 C431.05263784 60.64912567 424.91949102 60.01700726 418.4375 59.8125 C410.02705593 59.26279777 402.57525828 55.43758759 395 52 C394.9199945 56.68032152 394.98003288 60.91014797 396 65.5 C396.185625 66.3559375 396.37125 67.211875 396.5625 68.09375 C396.706875 68.7228125 396.85125 69.351875 397 70 C396.34 70.33 395.68 70.66 395 71 C390.15922455 67.0451181 388.829149 61.84527934 386.90820312 56.11132812 C385.36493533 51.96582891 384.60697958 50.36361513 380.6875 48.015625 C374.79426536 46.39248834 369.0788444 46.25825156 363 46 C361.59621094 45.81630859 361.59621094 45.81630859 360.1640625 45.62890625 C348.33513557 44.52735861 336.75020504 51.54972816 326.4921875 56.79296875 C324 58 324 58 322 58 C322 58.66 322 59.32 322 60 C322.9075 60.0825 323.815 60.165 324.75 60.25 C332.80592827 61.39616866 340.62787316 64.64903326 348 68 C348 68.33 348 68.66 348 69 C341.30871947 69.11405592 334.67610976 68.9633968 328 68.5 C315.60662434 66.94831135 315.60662434 66.94831135 304 70 C305.175625 71.2684375 305.175625 71.2684375 306.375 72.5625 C309.09386727 75.88295571 310.5334532 78.64556323 311 83 C308.88047147 86.40409128 306.88595781 88.40936146 303.5625 90.625 C301 91 301 91 297.8125 89.25 C295 87 295 87 293 85 C293.30309404 80.90823045 293.87699058 77.53834904 296 74 C295.175 74.66 294.35 75.32 293.5 76 C287.87544058 79.18988039 281.49113252 78.3690286 275.24414062 78.09423828 C272.99072646 77.99961058 270.73925093 77.94855022 268.484375 77.90234375 C258.46870048 77.61209666 249.56321613 76.03258329 240 73 C243.96 77.95 243.96 77.95 248 83 C247.67 83.66 247.34 84.32 247 85 C240.60430335 82.30707509 234.53895054 79.21394587 228.49389648 75.81835938 C224.41118067 73.5758093 220.50016188 72.27802431 216 71 C214.13671875 69.7109375 214.13671875 69.7109375 212.6875 68.375 C209.07113582 65.66074855 206.60643918 65.70763244 202.19140625 65.95703125 C197.96802139 66.01389445 193.87673581 65.49640758 189.6875 65 C173.78218971 63.21395003 159.54975758 63.44331099 145 71 C143.73465111 73.02839423 143.73465111 73.02839423 143 75 C140.875 75.75 140.875 75.75 139 76 C139 76.66 139 77.32 139 78 C139.76957031 78.34224609 139.76957031 78.34224609 140.5546875 78.69140625 C143.9431847 80.50473942 147.00121547 82.70576528 150.125 84.9375 C151.07439453 85.60168945 151.07439453 85.60168945 152.04296875 86.27929688 C154.96017515 88.35726449 156.99401728 89.99102592 159 93 C155.3851047 94.3147922 153.50955834 93.686139 150.04296875 92.1640625 C148.62081055 91.55691406 148.62081055 91.55691406 147.16992188 90.9375 C146.18572266 90.504375 145.20152344 90.07125 144.1875 89.625 C132.52245804 84.38333455 132.52245804 84.38333455 120.0859375 85.5 C111.32606957 87.59974362 104.9266884 84.64223993 97 81 C95.68953307 80.44698029 94.37692763 79.8990075 93.0625 79.35546875 C83.88907184 75.53220655 75.66108784 71.12384935 67.59765625 65.25 C49.9322057 52.42322229 31.66768821 47.46281424 9.86523438 50.27539062 C3.32548787 51.39938721 3.32548787 51.39938721 -2 55 C-3.66611905 55.042721 -5.33382885 55.04063832 -7 55 C-7.99 55.33 -8.98 55.66 -10 56 C-2.84958748 64.34214793 12.87765749 67.71707811 23 71 C22.67 71.99 22.34 72.98 22 74 C19.66471606 73.74153758 17.33258658 73.46856119 15 73.1875 C13.0509375 72.96126953 13.0509375 72.96126953 11.0625 72.73046875 C7.48110944 72.19754681 4.38595194 71.07041375 1.03564453 69.7331543 C-2.41495289 68.49039296 -5.9535819 67.91017603 -9.5625 67.3125 C-10.63661133 67.11817383 -10.63661133 67.11817383 -11.73242188 66.91992188 C-19.35709695 65.59679654 -19.35709695 65.59679654 -26.9375 66.5625 C-29 67 -29 67 -32.625 66.3125 C-37.0822076 65.66042704 -40.10210632 66.92223779 -44.1171875 68.796875 C-54.04406685 72.93980026 -62.51794108 73.25996675 -73.19140625 72.8828125 C-80.94931477 72.71755528 -87.57172597 73.8097172 -95 76 C-103.56959761 78.26294667 -113.20139463 79.27496907 -121.6484375 75.9609375 C-126.84734203 74.4703425 -131.99833345 74.79267177 -137.375 74.875 C-139.05142578 74.88853516 -139.05142578 74.88853516 -140.76171875 74.90234375 C-143.50803462 74.92581654 -146.25390472 74.95865272 -149 75 C-147.05393416 69.16180248 -140.1096776 65.20552316 -135 62 C-127.72598183 58.60836634 -119.15960868 58.28302244 -111.27978516 57.19580078 C-105.84889001 56.40676652 -101.12071076 55.22708615 -96.109375 52.92578125 C-92.61346495 51.39146517 -88.82653807 50.20345601 -85 50 C-83.515 50.99 -83.515 50.99 -82 52 C-62.00439299 52.65919584 -42.08984244 45.31953011 -26.9375 32.1875 C-23.89381112 29.33638194 -22.33290075 26.95726492 -21 23 C-20.34 23 -19.68 23 -19 23 C-19 22.34 -19 21.68 -19 21 C-17.42578125 19.44921875 -17.42578125 19.44921875 -15.3125 17.6875 C-14.57902344 17.05972656 -13.84554687 16.43195312 -13.08984375 15.78515625 C-12.40019531 15.19605469 -11.71054687 14.60695313 -11 14 C-6.95001463 10.33572752 -4.23300064 6.43737673 -1.4296875 1.79296875 C-0.95789063 1.20128906 -0.48609375 0.60960937 0 0 Z M23 35 C23 35.66 23 36.32 23 37 C29.14944671 38.16965523 29.14944671 38.16965523 35.0625 36.625 C35.701875 36.08875 36.34125 35.5525 37 35 C37 34.67 37 34.34 37 34 C29.94348748 33.85024761 29.94348748 33.85024761 23 35 Z M35.3125 38 C34.10013672 38.556875 34.10013672 38.556875 32.86328125 39.125 C31.94095703 39.558125 31.94095703 39.558125 31 40 C31 40.33 31 40.66 31 41 C38.425 41.99 38.425 41.99 46 43 C46.33 41.68 46.66 40.36 47 39 C42.59974023 35.35840571 40.36814765 35.65535181 35.3125 38 Z M378 36 C380.34591852 38.7710688 382.14776201 39.52059284 385.6875 40.1875 C386.49574219 40.34605469 387.30398438 40.50460938 388.13671875 40.66796875 C389.05904297 40.83232422 389.05904297 40.83232422 390 41 C386.24532309 37.94063363 382.91886939 36 378 36 Z M341 37 C339.68 37.99 338.36 38.98 337 40 C337.33 40.66 337.66 41.32 338 42 C339.32 41.01 340.64 40.02 342 39 C341.67 38.34 341.34 37.68 341 37 Z M359 37 C362.65728405 39.43818936 365.93287895 39.6716692 370.1875 40.125 C371.31188477 40.25455078 371.31188477 40.25455078 372.45898438 40.38671875 C374.30517412 40.59838382 376.15249344 40.80015464 378 41 C374.03074849 37.03074849 369.50259195 36.875 364.125 36.875 C362.41645625 36.90689282 360.70796558 36.94529648 359 37 Z M378 41 C378 41.99 378 42.98 378 44 C380.64 44.33 383.28 44.66 386 45 C386 44.34 386 43.68 386 43 C383.36 42.34 380.72 41.68 378 41 Z M0 45 C0.33 45.66 0.66 46.32 1 47 C3.31 46.01 5.62 45.02 8 44 C4.59745511 42.7848054 3.06748874 43.13759612 0 45 Z M182 43 C181.67 43.66 181.34 44.32 181 45 C181.99 45.33 182.98 45.66 184 46 C184 45.01 184 44.02 184 43 C183.34 43 182.68 43 182 43 Z M-15.0625 46.75 C-23.99641644 49.04384341 -32.98805574 51.03906768 -42 53 C-42 53.99 -42 54.98 -42 56 C-38.42732687 56.25519094 -36.3883432 56.20711638 -33.1875 54.5 C-29.48488666 52.75759372 -27.09813667 52.87928068 -23.09765625 53.01953125 C-20.36243706 52.99406366 -18.45770309 52.16417515 -16 51 C-14.2365625 50.566875 -14.2365625 50.566875 -12.4375 50.125 C-8.87231898 48.95821348 -7.36697879 47.84037455 -5 45 C-8.5481422 45 -11.65926712 45.8572679 -15.0625 46.75 Z M29 45 C30.485 45.99 30.485 45.99 32 47 C32 46.34 32 45.68 32 45 C31.01 45 30.02 45 29 45 Z M112 45 C112.33 46.65 112.66 48.3 113 50 C116.58327753 51.00217064 116.58327753 51.00217064 120 50 C119.67 48.35 119.34 46.7 119 45 C116.69 45 114.38 45 112 45 Z M394 46 C394 46.99 394 47.98 394 49 C395.98 49 397.96 49 400 49 C400 48.34 400 47.68 400 47 C397.03 46.505 397.03 46.505 394 46 Z M67 45 C67 45.66 67 46.32 67 47 C65.35 47.33 63.7 47.66 62 48 C62 48.66 62 49.32 62 50 C61.34 50 60.68 50 60 50 C60 50.66 60 51.32 60 52 C64.75795726 56.25353199 69.71025711 57.45994585 75.859375 58.3359375 C80.37612804 59.29097235 84.47304785 61.04715171 88.69750977 62.88061523 C92.46388147 64.49203489 95.93346471 65.49557525 100 66 C93.09548564 58.46568197 82.91986807 53.72557274 74 49 C71.65559808 47.6848477 69.32756763 46.34481685 67 45 Z M-47 49 C-47.66 49.66 -48.32 50.32 -49 51 C-47.35 51 -45.7 51 -44 51 C-44 50.34 -44 49.68 -44 49 C-44.99 49 -45.98 49 -47 49 Z M108 49 C108.33 50.32 108.66 51.64 109 53 C109.66 52.67 110.32 52.34 111 52 C110.01 51.01 109.02 50.02 108 49 Z M169 49 C169 49.66 169 50.32 169 51 C170.4562545 51.67119549 171.91507867 52.33681807 173.375 53 C174.59316406 53.556875 174.59316406 53.556875 175.8359375 54.125 C177.91998433 55.12495013 177.91998433 55.12495013 180 55 C180 54.34 180 53.68 180 53 C180.66 53 181.32 53 182 53 C181.34 51.68 180.68 50.36 180 49 C176.37 49 172.74 49 169 49 Z M407 49 C407 49.66 407 50.32 407 51 C407.66 50.67 408.32 50.34 409 50 C408.34 49.67 407.68 49.34 407 49 Z M412 51 C412.33 51.66 412.66 52.32 413 53 C416.02934491 53.65772428 416.02934491 53.65772428 419 54 C418.34 53.01 417.68 52.02 417 51 C414.41619823 50.74969023 414.41619823 50.74969023 412 51 Z M162.17578125 51.77734375 C161.56089844 52.16019531 160.94601562 52.54304688 160.3125 52.9375 C159.219375 53.618125 158.12625 54.29875 157 55 C157 55.66 157 56.32 157 57 C161.95 55.515 161.95 55.515 167 54 C167 53.34 167 52.68 167 52 C164.17133075 50.68887926 164.17133075 50.68887926 162.17578125 51.77734375 Z M318.3125 54.5 C317.879375 54.995 317.44625 55.49 317 56 C319.47266765 55.65555119 319.47266765 55.65555119 322 55 C322.33 54.34 322.66 53.68 323 53 C319.99740483 52.66781808 319.99740483 52.66781808 318.3125 54.5 Z M390 53 C391 55 391 55 391 55 Z M-50 54 C-49.67 54.66 -49.34 55.32 -49 56 C-48.67 55.34 -48.34 54.68 -48 54 C-48.66 54 -49.32 54 -50 54 Z M409 54 C409 54.66 409 55.32 409 56 C410.32 55.67 411.64 55.34 413 55 C411.68 54.67 410.36 54.34 409 54 Z M421 54 C421 54.66 421 55.32 421 56 C422.65 56 424.3 56 426 56 C425.67 55.34 425.34 54.68 425 54 C423.68 54 422.36 54 421 54 Z M435 54 C435 54.99 435 55.98 435 57 C435.66 57.33 436.32 57.66 437 58 C437.25394531 58.64839844 437.50789063 59.29679687 437.76953125 59.96484375 C438.86410058 62.25479194 438.86410058 62.25479194 441.57421875 62.94140625 C442.60160156 63.14636719 443.62898438 63.35132813 444.6875 63.5625 C448.22615222 64.33433952 451.48124866 65.05508926 454.75 66.625 C458.6247601 68.26432158 461.82424589 68.58242459 466 69 C466.99 69.33 467.98 69.66 469 70 C468.35185768 66.94398599 468.35185768 66.94398599 466.25683594 66.00439453 C465.50692383 65.71677246 464.75701172 65.42915039 463.984375 65.1328125 C463.15067383 64.80667969 462.31697266 64.48054688 461.45800781 64.14453125 C460.56436523 63.80808594 459.67072266 63.47164062 458.75 63.125 C457.84862305 62.77566406 456.94724609 62.42632812 456.01855469 62.06640625 C453.34944819 61.03418669 450.67514932 60.0164344 448 59 C446.59326117 58.45699386 445.18695677 57.91285981 443.78125 57.3671875 C440.8576665 56.23526911 437.93101328 55.11250139 435 54 Z M152 55 C151.01 55.99 150.02 56.98 149 58 C149.33 58.66 149.66 59.32 150 60 C150.99 59.01 151.98 58.02 153 57 C152.67 56.34 152.34 55.68 152 55 Z M202 56 C202 57.32 202 58.64 202 60 C205.47325181 61.1577506 208.36067448 61.06866652 212 61 C211.5899433 58.92064793 211.5899433 58.92064793 210 57 C207.30341548 56.31209578 204.7982981 56.18053536 202 56 Z M312 56 C313 58 313 58 313 58 Z M-88 60 C-87.34 60.66 -86.68 61.32 -86 62 C-85.01 62 -84.02 62 -83 62 C-83 61.34 -83 60.68 -83 60 C-84.65 60 -86.3 60 -88 60 Z M75 60 C75 60.66 75 61.32 75 62 C75.99 61.67 76.98 61.34 78 61 C77.01 60.67 76.02 60.34 75 60 Z M134 63 C133.67 63.99 133.34 64.98 133 66 C130.93359375 66.73046875 130.93359375 66.73046875 128.4375 67.1875 C127.61121094 67.34605469 126.78492188 67.50460938 125.93359375 67.66796875 C124.97646484 67.83232422 124.97646484 67.83232422 124 68 C124 68.66 124 69.32 124 70 C132.38785271 70.83507383 138.48641103 68.61478507 146 65 C146 64.34 146 63.68 146 63 C144.35 63.33 142.7 63.66 141 64 C140.67 62.68 140.34 61.36 140 60 C137.18129713 60 136.08952323 61.18009267 134 63 Z M218 60 C219.37485532 61.54166642 219.37485532 61.54166642 221 63 C221.66 63 222.32 63 223 63 C223 62.34 223 61.68 223 61 C221.35 60.67 219.7 60.34 218 60 Z M298 63 C300.12939828 64.35026777 300.12939828 64.35026777 303.125 63.0625 C304.548125 62.5365625 304.548125 62.5365625 306 62 C306 61.34 306 60.68 306 60 C302.42424104 60 300.94704065 61.08840607 298 63 Z M-94 61 C-94.33 61.99 -94.66 62.98 -95 64 C-97.0625 64.6875 -97.0625 64.6875 -99 65 C-96.36 65 -93.72 65 -91 65 C-90.67 63.68 -90.34 62.36 -90 61 C-91.32 61 -92.64 61 -94 61 Z M81 62 C81.33 62.99 81.66 63.98 82 65 C84.10584438 65.80563638 84.10584438 65.80563638 86.5625 66.1875 C87.38878906 66.34605469 88.21507812 66.50460938 89.06640625 66.66796875 C90.02353516 66.83232422 90.02353516 66.83232422 91 67 C88.07651242 63.71669856 85.24542505 63.04133067 81 62 Z M238 64 C238 64.66 238 65.32 238 66 C240.58252893 66.50449402 243.16588703 67.00374301 245.75 67.5 C246.47960937 67.64308594 247.20921875 67.78617187 247.9609375 67.93359375 C251.39343532 68.58888879 254.49169491 69 258 69 C258 68.34 258 67.68 258 67 C251.16914355 64.55833216 245.2484945 63.58359712 238 64 Z M109 67 C108.67 67.99 108.34 68.98 108 70 C110.31 70.66 112.62 71.32 115 72 C114.28436734 69.9837767 114.28436734 69.9837767 113 68 C110.94999129 67.19471111 110.94999129 67.19471111 109 67 Z M286.5 68.4375 C282.13680718 70.1730451 277.98305492 70.47710193 273.3203125 70.69140625 C270.80856937 70.78628871 270.80856937 70.78628871 269 73 C275.51903319 73.87234802 280.70856339 74.34386854 287 72 C288.134375 71.62875 289.26875 71.2575 290.4375 70.875 C291.283125 70.58625 292.12875 70.2975 293 70 C293 69.01 293 68.02 293 67 C289.83189279 66.81004057 289.83189279 66.81004057 286.5 68.4375 Z M-79 68 C-78.34 68.66 -77.68 69.32 -77 70 C-74.69 69.34 -72.38 68.68 -70 68 C-73.47823115 66.84058962 -75.45895578 67.29179116 -79 68 Z M-121 70 C-121 70.66 -121 71.32 -121 72 C-114.88019467 73.40454548 -109.28260706 74.23268915 -103 74 C-103 73.34 -103 72.68 -103 72 C-109.11980533 70.59545452 -114.71739294 69.76731085 -121 70 Z M92 70 C94.5550839 72.98093122 97.38281401 74.52359755 101 76 C103.12816413 75.84311576 103.12816413 75.84311576 105 75 C106.33069321 74.65627851 107.66378306 74.32157918 109 74 C106.73050898 73.32844651 104.4596039 72.6626037 102.1875 72 C100.92292969 71.62875 99.65835938 71.2575 98.35546875 70.875 C95.09412585 69.87383491 95.09412585 69.87383491 92 70 Z M257 71 C257.33 71.66 257.66 72.32 258 73 C258.99 72.67 259.98 72.34 261 72 C259.68 71.67 258.36 71.34 257 71 Z M484 71 C484 71.66 484 72.32 484 73 C489.28 73.33 494.56 73.66 500 74 C500 73.01 500 72.02 500 71 C494.72 71 489.44 71 484 71 Z M511 72 C511.33 72.66 511.66 73.32 512 74 C513.65 73.67 515.3 73.34 517 73 C517 72.67 517 72.34 517 72 C515.02 72 513.04 72 511 72 Z M300 73 C299.67 73.66 299.34 74.32 299 75 C300.65 75 302.3 75 304 75 C303.67 74.34 303.34 73.68 303 73 C302.01 73 301.02 73 300 73 Z M546 73 C545.67 73.66 545.34 74.32 545 75 C546.32 75 547.64 75 549 75 C549 74.34 549 73.68 549 73 C548.01 73 547.02 73 546 73 Z M508 76 C508 76.66 508 77.32 508 78 C510.97 78.495 510.97 78.495 514 79 C514 78.01 514 77.02 514 76 C512.02 76 510.04 76 508 76 Z M114 80 C115 82 115 82 115 82 Z M297 81 C297.33 82.32 297.66 83.64 298 85 C299.98 85.495 299.98 85.495 302 86 C302.33 85.01 302.66 84.02 303 83 C302.67 82.34 302.34 81.68 302 81 C300.35 81 298.7 81 297 81 Z " fill="#98637d" transform="translate(757,14)"/>
<path d="M0 0 C0.80824219 0.11085937 1.61648438 0.22171875 2.44921875 0.3359375 C3.37154297 0.47902344 3.37154297 0.47902344 4.3125 0.625 C5.94218757 5.5140627 5.21287921 10.45349721 3.25 15.1875 C0.1768316 17.46759268 -3.05463914 16.9995946 -6.6875 16.625 C-9.6875 16.125 -9.6875 16.125 -11.6875 15.625 C-12.23488937 10.1511063 -10.70985959 6.11305237 -7.6875 1.625 C-4.33422361 -0.61051759 -3.78006343 -0.54783528 0 0 Z M-3.6875 3.625 C-4.0175 4.285 -4.3475 4.945 -4.6875 5.625 C-3.0375 5.625 -1.3875 5.625 0.3125 5.625 C-0.0175 4.965 -0.3475 4.305 -0.6875 3.625 C-1.6775 3.625 -2.6675 3.625 -3.6875 3.625 Z M-4.6875 7.625 C-4.0275 8.945 -3.3675 10.265 -2.6875 11.625 C-1.3675 11.295 -0.0475 10.965 1.3125 10.625 C0.9825 9.635 0.6525 8.645 0.3125 7.625 C-1.3375 7.625 -2.9875 7.625 -4.6875 7.625 Z M-7.6875 9.625 C-7.3575 10.945 -7.0275 12.265 -6.6875 13.625 C-3.7175 14.12 -3.7175 14.12 -0.6875 14.625 C-2.31089805 12.91615995 -3.98069053 11.25053283 -5.6875 9.625 C-6.3475 9.625 -7.0075 9.625 -7.6875 9.625 Z " fill="#98637d" transform="translate(1070.6875,41.375)"/>
<path d="M0 0 C1.97537032 7.63809855 2.57477229 15.1332874 3 23 C3.58652344 22.84144531 4.17304688 22.68289062 4.77734375 22.51953125 C7.97677596 21.77168506 10.72906224 21.70264202 14 22 C17.76379646 25.4249632 18.02002515 30.15424377 18.75 34.9375 C18.88792969 35.73607422 19.02585937 36.53464844 19.16796875 37.35742188 C19.83403499 41.50145257 20.22723667 44.89539087 19 49 C17.1875 48.875 17.1875 48.875 15 48 C12.24717879 43.51991843 11.55830248 39.83601266 11.3125 34.625 C11.24675781 33.37976563 11.18101562 32.13453125 11.11328125 30.8515625 C11.07589844 29.91054687 11.03851563 28.96953125 11 28 C8.6568787 28.25561323 6.32156597 28.59270772 4 29 C2.67511286 31.64977429 3.04598483 33.37287745 3.3125 36.3125 C3.39113281 37.25738281 3.46976562 38.20226562 3.55078125 39.17578125 C4.00523098 42.03288694 4.82452304 44.36597205 6 47 C4.68 47.66 3.36 48.32 2 49 C-2.32821655 45.82597453 -2.82923109 42.34966657 -3.703125 37.33984375 C-4 35 -4 35 -4 32 C-5.65 31.67 -7.3 31.34 -9 31 C-8.6875 29.125 -8.6875 29.125 -8 27 C-7.01 26.34 -6.02 25.68 -5 25 C-3.88747168 18.88707559 -5.30456351 12.43798217 -6.5625 6.4453125 C-7 4 -7 4 -7 0 C-4.3333581 -1.33332095 -2.83319697 -0.67102033 0 0 Z " fill="#98637d" transform="translate(480,46)"/>
<path d="M0 0 C1.7578125 1.73046875 1.7578125 1.73046875 3 4 C2.9609375 6.5078125 2.9609375 6.5078125 2.375 9.125 C2.19710937 9.99382813 2.01921875 10.86265625 1.8359375 11.7578125 C1 14 1 14 -2 16 C-8.89178947 16.77810526 -8.89178947 16.77810526 -12.9375 13.9375 C-15.32870991 10.5318374 -15.7579806 8.11432986 -16 4 C-10.16356375 -0.02065609 -7.09171414 -1.64629078 0 0 Z M-9 5 C-10.35618499 6.12534105 -10.35618499 6.12534105 -10.0625 9.0625 C-10.041875 10.031875 -10.02125 11.00125 -10 12 C-7.69 12.33 -5.38 12.66 -3 13 C-2.67 11.68 -2.34 10.36 -2 9 C-5.465 7.02 -5.465 7.02 -9 5 Z " fill="#98637d" transform="translate(993,49)"/>
<path d="M0 0 C0.99 0.66 1.98 1.32 3 2 C3.1875 5.125 3.1875 5.125 3 8 C2.01 8 1.02 8 0 8 C-2 5 -2 5 -2 1 C-1.34 0.67 -0.68 0.34 0 0 Z " fill="#98637d" transform="translate(496,51)"/>
<path d="M0 0 C5.15104066 3.71354094 9.32013439 10.0860073 10.41796875 16.40625 C10.5807257 21.05644853 10.12438004 24.38743558 7 28 C0.55869721 33.82784538 0.55869721 33.82784538 -3.6171875 34.2890625 C-6 34 -6 34 -8.25 32.0625 C-11.19731654 26.90469605 -11.56665886 22.15330368 -10.0625 16.4375 C-9.711875 15.633125 -9.36125 14.82875 -9 14 C-10.32 13.34 -11.64 12.68 -13 12 C-13.32469403 7.34605219 -12.79790518 4.76641082 -10 1 C-6.7687682 -0.6156159 -3.49398061 -0.57333659 0 0 Z M-5 5 C-6.70532323 6.94009522 -6.70532323 6.94009522 -8 9 C-4.535 8.505 -4.535 8.505 -1 8 C-2.76699029 15.57281553 -2.76699029 15.57281553 -4.125 18.0625 C-5.45638311 21.0105626 -5.12243062 23.81680387 -5 27 C-2.80485127 27.9593157 -2.80485127 27.9593157 0 28 C3.53927505 25.98084669 3.53927505 25.98084669 6 23 C6.56768035 16.30137191 3.57513622 12.25508606 -0.2109375 6.90625 C-0.80132813 6.2771875 -1.39171875 5.648125 -2 5 C-2.99 5 -3.98 5 -5 5 Z " fill="#98637d" transform="translate(522,61)"/>
<path d="M0 0 C2.5 0.125 2.5 0.125 3.5 1.125 C3.59487401 2.91495627 3.68396635 4.70546201 3.73950195 6.49707031 C4.01639679 14.80576744 4.50196972 21.23502459 10.8125 27.375 C12.5 29.125 12.5 29.125 12.5 31.25 C11.19548569 33.69596433 10.04537728 34.09496296 7.5 35.125 C5.4128418 35.33618164 5.4128418 35.33618164 3.19921875 35.28515625 C2.38646484 35.27419922 1.57371094 35.26324219 0.73632812 35.25195312 C-0.10478516 35.23068359 -0.94589844 35.20941406 -1.8125 35.1875 C-6.46659727 35.0898616 -10.82487572 35.01437884 -15.43359375 35.76953125 C-16.44550781 35.88683594 -17.45742188 36.00414062 -18.5 36.125 C-23.29028696 31.98793399 -24.86101501 27.12128654 -26.5 21.125 C-26.89832031 21.89585938 -27.29664063 22.66671875 -27.70703125 23.4609375 C-28.50173828 24.96527344 -28.50173828 24.96527344 -29.3125 26.5 C-29.83457031 27.49773437 -30.35664062 28.49546875 -30.89453125 29.5234375 C-32.5 32.125 -32.5 32.125 -35.5 34.125 C-36.49 34.125 -37.48 34.125 -38.5 34.125 C-39.71825857 28.2077441 -39.83647378 22.26748484 -40.0625 16.25 C-40.10568359 15.18007812 -40.14886719 14.11015625 -40.19335938 13.0078125 C-40.29892817 10.38032246 -40.40103791 7.75274578 -40.5 5.125 C-38.625 4.5 -38.625 4.5 -36.5 4.125 C-33.81907309 6.80592691 -34.11329743 8.51667363 -33.875 12.25 C-33.80023437 13.34570312 -33.72546875 14.44140625 -33.6484375 15.5703125 C-33.59945312 16.41335937 -33.55046875 17.25640625 -33.5 18.125 C-30.93438995 15.61820049 -28.7135536 12.94918907 -26.5 10.125 C-21.75 10.875 -21.75 10.875 -19.5 13.125 C-19.03340269 15.84969786 -18.66400746 18.50679802 -18.375 21.25 C-18.28863281 22.00410156 -18.20226562 22.75820312 -18.11328125 23.53515625 C-17.90110739 25.39757127 -17.69954237 27.26118931 -17.5 29.125 C-10.1320776 26.13988718 -10.1320776 26.13988718 -5.4296875 20.0078125 C-4.23873173 16.3148488 -4.07927121 12.72011193 -3.9375 8.875 C-3.57771358 0.17888568 -3.57771358 0.17888568 0 0 Z M-1.5 24.125 C-2.16 25.445 -2.82 26.765 -3.5 28.125 C-1.85 28.125 -0.2 28.125 1.5 28.125 C0.84 26.805 0.18 25.485 -0.5 24.125 C-0.83 24.125 -1.16 24.125 -1.5 24.125 Z " fill="#98637d" transform="translate(576.5,56.875)"/>
<path d="M0 0 C5.1400042 2.6184927 7.76859371 5.45970692 9.65625 10.88671875 C11.31597146 16.61930932 11.20559092 20.63704181 8.4375 26.0625 C5.4055594 29.71637714 2.49881829 32.34853506 -2 34 C-5.07679916 34.10420532 -7.33989014 33.55070921 -10 32 C-12.43321897 28.70338075 -13.10811339 25.79204724 -13.5625 21.8125 C-13.71373014 17.9351611 -13.71373014 17.9351611 -16 15 C-15.87208006 9.49944268 -13.27201798 5.27095182 -10 1 C-6.78314421 -0.60842789 -3.4888991 -0.46778535 0 0 Z M-10 8 C-10.89207179 11.0957107 -10.89207179 11.0957107 -11 14 C-8.69 13.01 -6.38 12.02 -4 11 C-4 13.64 -4 16.28 -4 19 C-4.99 19.33 -5.98 19.66 -7 20 C-7 22.31 -7 24.62 -7 27 C-4.525 27.99 -4.525 27.99 -2 29 C2.30413784 26.22964699 2.30413784 26.22964699 4.7265625 21.91015625 C5.53088142 16.43891711 4.84045765 12.73409609 2 8 C-2.80632853 4.36594672 -5.1931968 4.30245908 -10 8 Z " fill="#98637d" transform="translate(454,63)"/>
<path d="M0 0 C1.9375 0.6875 1.9375 0.6875 2.9375 2.6875 C3.1875 6.1875 3.1875 6.1875 2.9375 9.6875 C-0.51495824 11.98913882 -2.00988713 12.03240322 -6.0625 11.6875 C-6.7225 11.0275 -7.3825 10.3675 -8.0625 9.6875 C-7.85969678 6.51024961 -7.62780822 4.40027993 -5.625 1.875 C-2.63297872 -0.39893617 -2.63297872 -0.39893617 0 0 Z M-5.0625 3.6875 C-5.7439823 5.57929203 -5.7439823 5.57929203 -6.0625 7.6875 C-5.4025 8.3475 -4.7425 9.0075 -4.0625 9.6875 C-1.45969432 9.36708603 -1.45969432 9.36708603 0.9375 8.6875 C1.52820014 6.74146726 1.52820014 6.74146726 1.9375 4.6875 C0.81215895 3.33131501 0.81215895 3.33131501 -2.125 3.625 C-3.094375 3.645625 -4.06375 3.66625 -5.0625 3.6875 Z " fill="#98637d" transform="translate(1264.0625,64.3125)"/>
<path d="M0 0 C2.4375 0.375 2.4375 0.375 5 1 C6.4783226 3.95664519 6.06032783 6.74229737 6 10 C6.66 10 7.32 10 8 10 C8.226875 9.236875 8.45375 8.47375 8.6875 7.6875 C10.26731682 4.45263699 11.83282717 3.58358642 15 2 C16.890625 3.01953125 16.890625 3.01953125 19 5 C19.77138685 7.63365288 20.32385402 10.00278032 20.75 12.6875 C20.87503906 13.38939453 21.00007813 14.09128906 21.12890625 14.81445312 C21.43417555 16.54039881 21.71910154 18.26992084 22 20 C22.59167969 18.85660156 23.18335938 17.71320313 23.79296875 16.53515625 C24.59024158 15.04378707 25.38846864 13.55292775 26.1875 12.0625 C26.57486328 11.30775391 26.96222656 10.55300781 27.36132812 9.77539062 C30.37314378 4.22468905 30.37314378 4.22468905 33.80078125 2.99609375 C34.52652344 2.99738281 35.25226563 2.99867187 36 3 C38.07416667 6.11125001 38.32744094 7.2876968 38.6328125 10.88671875 C38.71660156 11.82451172 38.80039063 12.76230469 38.88671875 13.72851562 C38.96535156 14.70498047 39.04398438 15.68144531 39.125 16.6875 C39.21136719 17.67556641 39.29773438 18.66363281 39.38671875 19.68164062 C39.59879723 22.12054315 39.80291201 24.55984788 40 27 C41.65 26.67 43.3 26.34 45 26 C44.505 27.485 44.505 27.485 44 29 C36.51139951 30.35040337 36.51139951 30.35040337 34.3125 28.84375 C32.65997739 26.5223492 32.28532101 24.61305524 31.8125 21.8125 C31.65394531 20.91144531 31.49539062 20.01039062 31.33203125 19.08203125 C31.22246094 18.39496094 31.11289063 17.70789063 31 17 C30.62488281 17.68707031 30.24976563 18.37414062 29.86328125 19.08203125 C29.09564453 20.43361328 29.09564453 20.43361328 28.3125 21.8125 C27.81363281 22.70582031 27.31476563 23.59914063 26.80078125 24.51953125 C24.78157078 27.30087322 23.12580963 28.59707757 20 30 C19.01 29.67 18.02 29.34 17 29 C15.33247178 23.71949396 14.58870025 18.49453567 14 13 C13.34 13 12.68 13 12 13 C9.69559987 17.29456388 8.21815438 21.31479085 7 26 C6.34 26 5.68 26 5 26 C5 26.66 5 27.32 5 28 C4.01 28 3.02 28 2 28 C1.46572728 24.27263047 0.94995807 20.54292619 0.4375 16.8125 C0.28603516 15.75740234 0.13457031 14.70230469 -0.02148438 13.61523438 C-0.16005859 12.59365234 -0.29863281 11.57207031 -0.44140625 10.51953125 C-0.63778687 9.11344604 -0.63778687 9.11344604 -0.83813477 7.67895508 C-1.00511108 4.91540888 -0.66448355 2.67704075 0 0 Z " fill="#98637d" transform="translate(162,68)"/>
<path d="M0 0 C4.31646551 2.28518762 7.0976625 4.45552709 9 9 C9.69999403 12.70996838 9.71020833 14.91976717 7.60546875 18.12109375 C3.62233963 22.85051722 -0.03453315 26.07329161 -6 27.9375 C-9 28 -9 28 -11.8125 26.5625 C-14.68489375 23.1976959 -15.27328699 20.30427016 -15 16 C-13.82690839 10.74774892 -11.76595149 5.60991915 -9 1 C-5.64870516 -0.11709828 -3.51689744 -0.34479387 0 0 Z M-3 5 C-3.433125 5.94875 -3.86625 6.8975 -4.3125 7.875 C-6 11 -6 11 -9 13 C-9.47114738 15.7427508 -9.17805784 18.19558897 -9 21 C-7.97291667 22.22708333 -7.97291667 22.22708333 -5.8125 22.3125 C-2.03905189 21.89322799 0.02947041 20.29540923 3 18 C4.44430855 15.11138291 4.37688506 13.20352299 4 10 C1.7495803 7.08209475 1.7495803 7.08209475 -1 5 C-1.66 5 -2.32 5 -3 5 Z " fill="#98637d" transform="translate(107,70)"/>
<path d="M0 0 C1.2065625 0.0309375 1.2065625 0.0309375 2.4375 0.0625 C4.09247356 3.37244713 3.53834335 7.05373 3.5 10.6875 C3.49548828 11.48929688 3.49097656 12.29109375 3.48632812 13.1171875 C3.47453168 15.09899006 3.45659605 17.08075433 3.4375 19.0625 C8.52053686 19.17570856 8.52053686 19.17570856 13.4375 18.0625 C13.4375 12.7825 13.4375 7.5025 13.4375 2.0625 C15.0875 1.4025 16.7375 0.7425 18.4375 0.0625 C21.39050736 3.01550736 21.11973844 6.45632678 21.5 10.4375 C21.65519739 11.96638669 21.81267732 13.49504374 21.97265625 15.0234375 C22.038479 15.70196777 22.10430176 16.38049805 22.17211914 17.07958984 C22.44778684 19.42013526 22.44778684 19.42013526 23.4375 23.0625 C28.3875 22.7325 33.3375 22.4025 38.4375 22.0625 C33.96988526 26.53011474 30.54425617 28.56541901 24.3125 29.5625 C20.41061527 28.88391135 19.04108708 26.94755595 16.4375 24.0625 C15.4475 23.7325 14.4575 23.4025 13.4375 23.0625 C12.880625 23.371875 12.32375 23.68125 11.75 24 C8.32821908 25.57216961 5.12306305 25.94037539 1.4375 25.0625 C-3.37818784 19.62941628 -3.70206119 14.90077334 -3.6875 7.875 C-3.69007812 6.62332031 -3.69265625 5.37164062 -3.6953125 4.08203125 C-3.51954223 0.08584249 -3.51954223 0.08584249 0 0 Z " fill="#98637d" transform="translate(123.5625,69.9375)"/>
<path d="M0 0 C2.99552203 1.53429177 4.0849509 2.27963606 5.5625 5.3125 C6.4158957 10.15153496 6.14390028 14.07690537 3.4375 18.25 C0.92996504 21.35388282 -1.49595673 22.48752583 -5.4375 23.3125 C-5.4375 23.9725 -5.4375 24.6325 -5.4375 25.3125 C2.67957705 27.0885693 8.85689887 28.16530056 16.5625 24.3125 C16.8925 16.7225 17.2225 9.1325 17.5625 1.3125 C19.2125 0.9825 20.8625 0.6525 22.5625 0.3125 C24.5625 2.3125 24.5625 2.3125 24.7578125 6.0078125 C24.744509 7.48450108 24.72064835 8.96112358 24.6875 10.4375 C24.67847656 11.19160156 24.66945312 11.94570312 24.66015625 12.72265625 C24.6365687 14.58607254 24.60069719 16.44932593 24.5625 18.3125 C24.90023437 17.63703125 25.23796875 16.9615625 25.5859375 16.265625 C27.578125 12.28125 29.5703125 8.296875 31.5625 4.3125 C33.9375 4.5625 33.9375 4.5625 36.5625 5.3125 C39.0148619 8.81587415 39.21031746 12.92431047 39.6875 17.0625 C39.77386719 17.75988281 39.86023438 18.45726563 39.94921875 19.17578125 C40.16021846 20.88722332 40.36225501 22.59976629 40.5625 24.3125 C43.2025 24.3125 45.8425 24.3125 48.5625 24.3125 C49.0575 25.7975 49.0575 25.7975 49.5625 27.3125 C41.70897414 29.53681016 41.70897414 29.53681016 37.6875 28.75 C35.0342612 26.95516199 33.92843049 25.18814314 32.5625 22.3125 C32.5625 21.6525 32.5625 20.9925 32.5625 20.3125 C30.64139725 22.05064058 29.44816434 23.52038302 28.1875 25.8125 C26.30050341 28.71557167 24.66842511 29.83718557 21.5625 31.3125 C20.5725 31.3125 19.5825 31.3125 18.5625 31.3125 C17.9025 30.3225 17.2425 29.3325 16.5625 28.3125 C15.428125 28.786875 14.29375 29.26125 13.125 29.75 C5.65616678 32.5113644 -1.87530965 33.28878375 -9.4375 30.3125 C-11.30681277 28.71023192 -12.33463551 27.51822898 -13.4375 25.3125 C-14.03640524 16.78854632 -13.59065097 10.65214855 -7.9375 4 C-3.46313603 -0.97678196 -3.46313603 -0.97678196 0 0 Z M-2.4375 6.3125 C-6.07926491 10.2959244 -6.07926491 10.2959244 -7.4375 15.3125 C-6.08305699 17.08440909 -6.08305699 17.08440909 -4.4375 18.3125 C-0.37112801 14.94413917 -0.37112801 14.94413917 0.875 10 C0.771875 9.113125 0.66875 8.22625 0.5625 7.3125 C-0.4275 6.9825 -1.4175 6.6525 -2.4375 6.3125 Z " fill="#98637d" transform="translate(226.4375,67.6875)"/>
<path d="M0 0 C3.52532329 1.62164871 5.40246608 3.71496608 8.125 6.4375 C10.80290896 7.30988858 10.80290896 7.30988858 13.125 7.4375 C12.795 8.0975 12.465 8.7575 12.125 9.4375 C11.135 9.4375 10.145 9.4375 9.125 9.4375 C8.6609375 10.8915625 8.6609375 10.8915625 8.1875 12.375 C7.125 15.4375 7.125 15.4375 6.125 16.4375 C4.50360563 16.56244616 2.87615878 16.61321624 1.25 16.625 C0.36570312 16.63917969 -0.51859375 16.65335938 -1.4296875 16.66796875 C-3.875 16.4375 -3.875 16.4375 -6.875 14.4375 C-8.09405924 11.85696806 -8.66224883 9.27963741 -8.875 6.4375 C-7.10974708 2.16372978 -4.98034367 -0.97441507 0 0 Z M-0.875 5.4375 C-2.4583253 6.6863427 -2.4583253 6.6863427 -3.875 8.4375 C-3.875 9.7575 -3.875 11.0775 -3.875 12.4375 C-2.885 12.4375 -1.895 12.4375 -0.875 12.4375 C-0.215 10.4575 0.445 8.4775 1.125 6.4375 C0.465 6.1075 -0.195 5.7775 -0.875 5.4375 Z M3.125 10.4375 C2.795 11.0975 2.465 11.7575 2.125 12.4375 C3.115 12.1075 4.105 11.7775 5.125 11.4375 C4.465 11.1075 3.805 10.7775 3.125 10.4375 Z " fill="#98637d" transform="translate(919.875,80.5625)"/>
<path d="M0 0 C2.93789575 1.89807872 4.64311484 3.76707361 6 7 C6.37454045 10.53138141 6.22810796 13.65486785 5 17 C0.35902059 21.27509307 -4.30241544 21.27435338 -10.33203125 21.2265625 C-14.7284585 20.85322021 -16.9802115 19.0197885 -20 16 C-20.68810423 11.97277944 -20.90834545 7.78050185 -19.01953125 4.078125 C-13.45423638 -2.83996463 -7.96916673 -2.76739075 0 0 Z M-12 8 C-12.23428313 12.7897321 -12.23428313 12.7897321 -10 17 C-9.01 16.67 -8.02 16.34 -7 16 C-8.32 13.36 -9.64 10.72 -11 8 C-11.33 8 -11.66 8 -12 8 Z M-5 10 C-5.59070014 11.94603274 -5.59070014 11.94603274 -6 14 C-4.87465895 15.35618499 -4.87465895 15.35618499 -1.9375 15.0625 C-0.968125 15.041875 0.00125 15.02125 1 15 C1 13.68 1 12.36 1 11 C-1.97 10.505 -1.97 10.505 -5 10 Z " fill="#98637d" transform="translate(747,84)"/>
<path d="M0 0 C3.6875 0.375 3.6875 0.375 6.1875 2.5625 C7.6875 5.375 7.6875 5.375 7.4375 8.1875 C7.19 8.909375 6.9425 9.63125 6.6875 10.375 C1.39308305 10.87923019 -1.12663519 9.56423033 -5.3125 6.375 C-4.25472222 0.48166667 -4.25472222 0.48166667 0 0 Z M-1.3125 3.375 C-1.3125 4.695 -1.3125 6.015 -1.3125 7.375 C0.6675 7.87 0.6675 7.87 2.6875 8.375 C2.42073796 6.39008358 2.42073796 6.39008358 1.6875 4.375 C0.6975 4.045 -0.2925 3.715 -1.3125 3.375 Z M4.6875 7.375 C5.6875 9.375 5.6875 9.375 5.6875 9.375 Z " fill="#98637d" transform="translate(942.3125,84.625)"/>
<path d="M0 0 C3.41254312 1.33172414 4.65869043 2.89749552 6.5625 6 C7.05716958 8.9680175 7.02617863 10.29227998 5.375 12.8125 C3.5625 14 3.5625 14 1.125 14.5625 C-1.4375 14 -1.4375 14 -3.75 11.3125 C-5.40757903 8.05873376 -6.10888432 6.54874569 -5.4375 3 C-3.80148677 0.41682122 -3.07439332 0 0 0 Z M-1.4375 4 C-1.4375 4.99 -1.4375 5.98 -1.4375 7 C-0.7775 6.01 -0.1175 5.02 0.5625 4 C-0.0975 4 -0.7575 4 -1.4375 4 Z M0.5625 7 C-0.0975 8.98 -0.7575 10.96 -1.4375 13 C1.6370356 12.2236068 1.6370356 12.2236068 3.5625 10 C3.5625 9.01 3.5625 8.02 3.5625 7 C2.5725 7 1.5825 7 0.5625 7 Z " fill="#98637d" transform="translate(1078.4375,88)"/>
<path d="M0 0 C3.18614933 1.07425725 4.02211726 1.85300692 6.375 4.5 C7.86497812 7.66620351 8.52122258 9.2717521 7.875 12.6875 C5.99639167 15.1923111 4.91398126 15.67450625 1.875 16.6875 C-3.34430524 17.08140983 -6.70677416 16.56448427 -11.125 13.6875 C-12.6875 11.8125 -12.6875 11.8125 -13.125 9.6875 C-10.84692332 4.13468809 -6.41008879 -1.19368506 0 0 Z M-3.125 7.6875 C-3.125 8.3475 -3.125 9.0075 -3.125 9.6875 C-1.805 9.0275 -0.485 8.3675 0.875 7.6875 C-0.445 7.6875 -1.765 7.6875 -3.125 7.6875 Z M-0.125 9.6875 C-0.455 10.6775 -0.785 11.6675 -1.125 12.6875 C0.195 12.3575 1.515 12.0275 2.875 11.6875 C2.875 11.0275 2.875 10.3675 2.875 9.6875 C1.885 9.6875 0.895 9.6875 -0.125 9.6875 Z M-7.125 11.6875 C-6.465 12.3475 -5.805 13.0075 -5.125 13.6875 C-5.125 13.0275 -5.125 12.3675 -5.125 11.6875 C-5.785 11.6875 -6.445 11.6875 -7.125 11.6875 Z " fill="#98637d" transform="translate(1209.125,88.3125)"/>
<path d="M0 0 C3.375 0.875 3.375 0.875 5.375 2.875 C5.5 5.5 5.5 5.5 5.375 7.875 C0.625 6 0.625 6 -1.625 4.875 C-1.625 6.195 -1.625 7.515 -1.625 8.875 C0.85 9.865 0.85 9.865 3.375 10.875 C3.375 11.205 3.375 11.535 3.375 11.875 C1.065 11.875 -1.245 11.875 -3.625 11.875 C-3.955 10.555 -4.285 9.235 -4.625 7.875 C-5.285 7.875 -5.945 7.875 -6.625 7.875 C-7.375 6.125 -7.375 6.125 -7.625 3.875 C-5.31487032 0.31355007 -4.28825814 -0.14787097 0 0 Z " fill="#98637d" transform="translate(1312.625,95.125)"/>
<path d="M0 0 C7.07760532 0.33702882 7.07760532 0.33702882 10 2.4375 C11 4 11 4 11 6 C8.69 5.34 6.38 4.68 4 4 C2.45833358 5.37485532 2.45833358 5.37485532 1 7 C1 7.66 1 8.32 1 9 C2.32 9.33 3.64 9.66 5 10 C5 9.34 5 8.68 5 8 C6.65 8 8.3 8 10 8 C9.67 9.65 9.34 11.3 9 13 C7.53890937 12.74445946 6.08111904 12.46999628 4.625 12.1875 C3.40683594 11.96126953 3.40683594 11.96126953 2.1640625 11.73046875 C0 11 0 11 -2 8 C-2.25 4.9375 -2.25 4.9375 -2 2 C-1.34 1.34 -0.68 0.68 0 0 Z " fill="#98637d" transform="translate(1224,97)"/>
<path d="M0 0 C4.53491306 1.61908851 7.50024504 3.29193684 10.75 6.875 C11.5625 9.6875 11.5625 9.6875 10.75 12.875 C8.41336816 16.79823371 5.87067561 20.13438927 1.45703125 21.67578125 C-2.87312699 22.27779655 -6.38006396 22.10314499 -10.25 19.875 C-12.25 17.875 -12.25 17.875 -12.40234375 15.265625 C-11.93573211 8.44461115 -11.40451224 4.526633 -6.25 -0.125 C-3.62351958 -1.43824021 -2.75352162 -0.88974338 0 0 Z M-5.25 5.875 C-4.25 7.875 -4.25 7.875 -4.25 7.875 Z M-2.25 6.875 C-3.24 7.535 -4.23 8.195 -5.25 8.875 C-4.97382467 10.81574861 -4.97382467 10.81574861 -4.25 12.875 C-1.53450846 15.18171915 -1.53450846 15.18171915 0.9375 14.5 C1.535625 14.29375 2.13375 14.0875 2.75 13.875 C2.56171228 11.43019921 2.56171228 11.43019921 1.75 8.875 C-0.21758273 7.51479849 -0.21758273 7.51479849 -2.25 6.875 Z M7.75 8.875 C8.75 11.875 8.75 11.875 8.75 11.875 Z M-9.25 14.875 C-9.25 16.195 -9.25 17.515 -9.25 18.875 C-7.79364629 19.09674933 -6.33477044 19.30198698 -4.875 19.5 C-4.06289063 19.61601563 -3.25078125 19.73203125 -2.4140625 19.8515625 C-1.69992187 19.85929687 -0.98578125 19.86703125 -0.25 19.875 C0.41 19.215 1.07 18.555 1.75 17.875 C-1.88 16.885 -5.51 15.895 -9.25 14.875 Z " fill="#98637d" transform="translate(886.25,102.125)"/>
</svg>
